<?xml version="1.0" encoding="utf-8"?>
<svg width="160" height="100" viewBox="0 0 160 100" fill="none" xmlns="http://www.w3.org/2000/svg">
<path fill-rule="evenodd" clip-rule="evenodd" d="M148 1.01147e-06C140 1.76645e-06 55.3008 -1.60318e-06 8 1.01147e-06C4 1.23258e-06 0 4 0 8V88C-4.63e-07 96 4 100 12 100C56.6232 100 140 100 148 100C156 100 160 96 160 88V12C160 4 156 1.01147e-06 148 1.01147e-06Z" fill="#306FC5"/>
<path fill-rule="evenodd" clip-rule="evenodd" d="M14.4261 36.5205L11.3473 28.9712L8.28614 36.5205H14.4261ZM82.2512 33.5144C81.6331 33.892 80.902 33.9045 80.0261 33.9045H74.5616V29.6984H80.1005C80.8844 29.6984 81.7023 29.7338 82.2336 30.0399C82.8171 30.3158 83.1781 30.903 83.1781 31.7141C83.1781 32.5417 82.8347 33.2077 82.2512 33.5144ZM121.234 36.5205L118.121 28.9712L115.026 36.5205H121.234ZM48.5674 44.6918H43.956L43.939 29.8606L37.4165 44.6918H33.467L26.9274 29.8474V44.6918H17.7785L16.0501 40.4679H6.68431L4.93831 44.6918H0.0527888L8.1079 25.7549H14.7911L22.4415 43.6843V25.7549H29.7831L35.6699 38.6013L41.0776 25.7549H48.5668L48.5674 44.6918ZM66.9464 44.6918H51.9198V25.7549H66.9464V29.6984H56.4182V33.1117H66.6938V36.9935H56.4182V40.7752H66.9464V44.6918ZM88.1335 30.855C88.1335 33.8743 86.1309 35.4341 84.9639 35.9025C85.9481 36.2795 86.7888 36.9455 87.1889 37.4972C87.8241 38.4391 87.9336 39.2805 87.9336 40.9717V44.6918H83.3966L83.3796 42.3037C83.3796 41.1642 83.488 39.5255 82.6695 38.6145C82.0122 37.9485 81.0104 37.804 79.3909 37.804H74.5622V44.6918H70.0644V25.7549H80.4104C82.7093 25.7549 84.403 25.8161 85.8573 26.662C87.2803 27.5079 88.1335 28.7428 88.1335 30.855ZM95.332 44.6918H90.7422V25.7549H95.332V44.6918ZM148.579 44.6918H142.205L133.679 30.4786V44.6918H124.518L122.767 40.4679H113.423L111.725 44.6918H106.461C104.275 44.6918 101.507 44.2052 99.9388 42.5973C98.358 40.9894 97.5355 38.8115 97.5355 35.3679C97.5355 32.5594 98.0271 29.9919 99.9604 27.9631C101.415 26.4518 103.692 25.7549 106.792 25.7549H111.147V29.8126H106.883C105.242 29.8126 104.315 30.0582 103.422 30.9344C102.655 31.7318 102.129 33.2391 102.129 35.224C102.129 37.2528 102.529 38.7156 103.366 39.6712C104.058 40.4205 105.316 40.6479 106.501 40.6479H108.521L114.86 25.7555H121.6L129.216 43.6671V25.7555H136.065L143.972 38.944V25.7555H148.579V44.6918ZM0.000567621 48.4113H7.68616L9.41911 44.2052H13.2988L15.0272 48.4113H30.1492V45.1956L31.499 48.4251H39.3492L40.699 45.1476V48.4113H78.2801L78.2625 41.5069H78.9896C79.4988 41.5246 79.6475 41.572 79.6475 42.418V48.4113H99.0846V46.804C100.652 47.6494 103.091 48.4113 106.3 48.4113H114.477L116.227 44.2052H120.106L121.818 48.4113H137.576V44.4159L139.962 48.4113H152.589V22H140.092V25.1192L138.342 22H125.519V25.1192L123.912 22H106.591C103.692 22 101.143 22.4072 99.0846 23.5422V22H87.1316V23.5422C85.8215 22.3724 84.0364 22 82.0514 22H38.3826L35.4525 28.8216L32.4435 22H18.6889V25.1192L17.1779 22H5.44746L0 34.5574L0.000567621 48.4113ZM160 62.3561H151.802C150.983 62.3561 150.44 62.387 149.981 62.6983C149.507 63.005 149.324 63.4602 149.324 64.0611C149.324 64.7756 149.725 65.2617 150.308 65.4719C150.782 65.6381 151.292 65.6867 152.041 65.6867L154.479 65.7524C156.939 65.8135 158.582 66.239 159.583 67.2768C159.765 67.4213 159.875 67.5836 160 67.7458V62.3561ZM160 74.8438C158.907 76.4517 156.778 77.2668 153.896 77.2668H145.209V73.2051H153.861C154.719 73.2051 155.319 73.0914 155.681 72.7362C155.994 72.4432 156.213 72.0176 156.213 71.5007C156.213 70.9489 155.994 70.5109 155.663 70.2481C155.337 69.9591 154.862 69.8277 154.079 69.8277C149.855 69.6832 144.586 69.9591 144.586 63.9651C144.586 61.2178 146.319 58.3259 151.04 58.3259H159.999V54.5572H151.675C149.162 54.5572 147.338 55.1627 146.045 56.104V54.5572H133.732C131.763 54.5572 129.451 55.0485 128.358 56.104V54.5572H106.369V56.104C104.619 54.8337 101.667 54.5572 100.304 54.5572H85.8V56.104C84.4155 54.7549 81.3368 54.5572 79.4602 54.5572H63.2279L59.5134 58.6023L56.0345 54.5572H31.7868V80.9869H55.5781L59.4056 76.8778L63.0111 80.9869L77.6762 81V74.7827H79.1179C81.0637 74.813 83.3586 74.7342 85.3833 73.8534V80.9863H97.4793V74.0979H98.0628C98.8076 74.0979 98.8808 74.1287 98.8808 74.8775V80.9857H135.626C137.959 80.9857 140.398 80.3848 141.748 79.2945V80.9857H153.404C155.829 80.9857 158.198 80.6436 160 79.7674V74.8438ZM142.057 67.2768C142.933 68.189 143.402 69.3405 143.402 71.2899C143.402 75.3647 140.872 77.2668 136.336 77.2668H127.575V73.2051H136.301C137.154 73.2051 137.759 73.0914 138.138 72.7362C138.447 72.4432 138.669 72.0176 138.669 71.5007C138.669 70.9489 138.429 70.5109 138.12 70.2481C137.776 69.9591 137.302 69.8277 136.519 69.8277C132.312 69.6832 127.044 69.9591 127.044 63.9651C127.044 61.2178 128.759 58.3259 133.475 58.3259H142.493V62.3573H134.241C133.423 62.3573 132.892 62.3881 132.439 62.6994C131.946 63.0061 131.764 63.4614 131.764 64.0622C131.764 64.7768 132.182 65.2629 132.748 65.473C133.222 65.6393 133.732 65.6878 134.498 65.6878L136.92 65.7535C139.362 65.8135 141.038 66.2384 142.057 67.2768ZM101.467 66.1071C100.866 66.4663 100.122 66.4972 99.2463 66.4972H93.7818V62.243H99.3207C100.122 62.243 100.923 62.2602 101.467 62.5852C102.05 62.8919 102.399 63.4785 102.399 64.289C102.399 65.0995 102.05 65.7524 101.467 66.1071ZM104.184 68.4643C105.185 68.8362 106.004 69.5027 106.388 70.0545C107.023 70.9792 107.115 71.8423 107.133 73.5118V77.2668H102.617V74.8969C102.617 73.7574 102.726 72.0702 101.89 71.1894C101.232 70.5109 100.231 70.3486 98.5896 70.3486H93.7824V77.2668H89.2624V58.3253H99.6477C101.925 58.3253 103.584 58.4264 105.06 59.2192C106.48 60.0823 107.372 61.2646 107.372 63.4254C107.372 66.4486 105.368 67.9914 104.184 68.4643ZM109.867 58.3253H124.88V62.2425H114.346V65.6861H124.622V69.5507H114.346V73.3193L124.88 73.3365V77.2668H109.867V58.3253ZM79.5175 67.0666H73.7045V62.243H79.5697C81.1937 62.243 82.321 62.909 82.321 64.5654C82.321 66.2036 81.2459 67.0666 79.5175 67.0666ZM69.2243 75.5441L62.318 67.8286L69.2243 60.3581V75.5441ZM51.389 73.3193H40.3295V69.5507H50.205V65.6861H40.3295V62.2425H51.607L56.5271 67.7623L51.389 73.3193ZM87.1503 64.5654C87.1503 69.8272 83.2491 70.9135 79.3172 70.9135H73.7045V77.2668H64.9614L59.4226 70.9964L53.6663 77.2668H35.8487V58.3253H53.9405L59.4748 64.534L65.1964 58.3253H79.5697C83.1395 58.3253 87.1503 59.3197 87.1503 64.5654Z" fill="white"/>
</svg>
