<?xml version="1.0" encoding="utf-8"?>
<svg width="160" height="100" viewBox="0 0 160 100" fill="none" xmlns="http://www.w3.org/2000/svg">
<path fill-rule="evenodd" clip-rule="evenodd" d="M148 1.01147e-06C140 1.76645e-06 55.3008 -1.60318e-06 8 1.01147e-06C4 1.23258e-06 0 4 0 8V88C-4.63e-07 96 4 100 12 100C56.6232 100 140 100 148 100C156 100 160 96 160 88V12C160 4 156 1.01147e-06 148 1.01147e-06Z" fill="#265697"/>
<path fill-rule="evenodd" clip-rule="evenodd" d="M149.545 50.5C149.552 73.7378 130.92 92.5793 107.93 92.5854C84.939 92.5911 66.2988 73.7591 66.2927 50.5214V50.5C66.2866 27.2627 84.9188 8.42024 107.908 8.41406C130.898 8.40789 149.539 27.2408 149.545 50.4786V50.5Z" fill="#DFAC16"/>
<path fill-rule="evenodd" clip-rule="evenodd" d="M51.8125 8.42502C28.9587 8.57175 10.4543 27.3653 10.4543 50.5C10.4543 73.725 29.1029 92.5745 52.0808 92.5745C62.865 92.5745 72.6951 88.4205 80.0921 81.6119C80.0916 81.6119 80.0907 81.611 80.0888 81.61H80.0977C81.6123 80.2149 83.025 78.7096 84.3235 77.1045H75.7953C74.6565 75.7141 73.6215 74.2654 72.6918 72.7705H87.4003C88.2948 71.3236 89.1047 69.8211 89.8235 68.265H70.2634C69.5968 66.8205 69.018 65.3432 68.5237 63.8445H91.565C92.9538 59.6506 93.7073 55.1636 93.7073 50.4995C93.7073 47.4073 93.3756 44.3924 92.748 41.4895H67.3018C67.617 39.9956 68.015 38.5198 68.4895 37.0695H91.5392C91.0238 35.5262 90.4253 34.0224 89.7446 32.5645H70.2611C70.9639 31.0469 71.7602 29.5705 72.6495 28.145H87.3472C86.3691 26.5699 85.2866 25.0651 84.1164 23.6395H75.9217C77.1887 22.1323 78.5835 20.713 80.0977 19.3895C72.7003 12.58 62.8674 8.42502 52.0808 8.42502C51.9911 8.42502 51.9023 8.42454 51.8125 8.42502Z" fill="#BF3126"/>
<path fill-rule="evenodd" clip-rule="evenodd" d="M67.0495 61.2124L67.6044 57.4045C67.3014 57.4045 66.8555 57.5356 66.4623 57.5356C64.9195 57.5356 64.7494 56.7065 64.8476 56.0934L66.094 48.3238H68.4387L69.0048 44.1118H66.794L67.244 41.4924H62.812C62.7142 41.5912 60.1956 56.224 60.1956 58.0057C60.1956 60.6435 61.6609 61.8184 63.7271 61.7994C65.3451 61.7856 66.6051 61.333 67.0495 61.2124Z" fill="white"/>
<path fill-rule="evenodd" clip-rule="evenodd" d="M68.4538 53.9522C68.4538 60.283 72.588 61.7874 76.1101 61.7874C79.3611 61.7874 80.7916 61.0527 80.7916 61.0527L81.5724 56.732C81.5724 56.732 79.0994 57.8332 76.866 57.8332C72.1069 57.8332 72.9403 54.2466 72.9403 54.2466H81.9473C81.9473 54.2466 82.5289 51.3438 82.5289 50.1609C82.5289 47.2091 81.0754 43.6125 76.2092 43.6125C71.7527 43.6135 68.4538 48.467 68.4538 53.9522ZM76.2261 47.6246C78.7273 47.6246 78.266 50.4657 78.266 50.6956H73.3453C73.3453 50.4021 73.8104 47.6246 76.2261 47.6246Z" fill="white"/>
<path fill-rule="evenodd" clip-rule="evenodd" d="M104.292 61.2105L105.085 56.3266C105.085 56.3266 102.91 57.4287 101.418 57.4287C98.2738 57.4287 97.0128 55.0022 97.0128 52.3952C97.0128 47.1067 99.7179 44.1972 102.729 44.1972C104.988 44.1972 106.8 45.4789 106.8 45.4789L107.524 40.7336C107.524 40.7336 104.836 39.6343 102.532 39.6343C97.4154 39.6343 92.4379 44.1208 92.4379 52.5467C92.4379 58.1339 95.1256 61.824 100.415 61.824C101.91 61.8245 104.292 61.2105 104.292 61.2105Z" fill="white"/>
<path fill-rule="evenodd" clip-rule="evenodd" d="M42.6731 43.6824C39.6339 43.6824 37.3042 44.6696 37.3042 44.6696L36.6611 48.5288C36.6611 48.5288 38.5839 47.7391 41.4906 47.7391C43.141 47.7391 44.3484 47.9267 44.3484 49.2824C44.3484 50.1058 44.2004 50.4097 44.2004 50.4097C44.2004 50.4097 42.8986 50.2996 42.2958 50.2996C38.4627 50.2996 34.4361 51.953 34.4361 56.9381C34.4361 60.8661 37.0778 61.7674 38.715 61.7674C41.842 61.7674 43.1899 59.7165 43.2617 59.7103L43.1156 61.4222H47.0182L48.7593 49.0849C48.7593 43.8509 44.2422 43.6824 42.6731 43.6824ZM43.6225 53.7276C43.7071 54.4812 43.1551 58.0137 40.4866 58.0137C39.1101 58.0137 38.7521 56.9509 38.7521 56.3222C38.7521 55.0961 39.4113 53.6241 42.659 53.6241C43.4144 53.625 43.4952 53.7067 43.6225 53.7276Z" fill="white"/>
<path fill-rule="evenodd" clip-rule="evenodd" d="M52.9072 61.6772C53.9055 61.6772 59.6126 61.9337 59.6126 55.9813C59.6126 50.4164 54.3297 51.5157 54.3297 49.2801C54.3297 48.167 55.1909 47.8166 56.7647 47.8166C57.3895 47.8166 59.7935 48.0174 59.7935 48.0174L60.3526 44.0618C60.3526 44.0623 58.7966 43.71 56.2634 43.71C52.9847 43.71 49.6567 45.0329 49.6567 49.5593C49.6567 54.6883 55.2059 54.1735 55.2059 56.3341C55.2059 57.7763 53.6556 57.8936 52.4609 57.8936C50.3933 57.8936 48.5315 57.1765 48.5249 57.2107L47.9339 61.1264C48.041 61.1597 49.1892 61.6772 52.9072 61.6772Z" fill="white"/>
<path fill-rule="evenodd" clip-rule="evenodd" d="M141.004 40.1329L140.048 46.1289C140.048 46.1289 138.38 43.7997 135.768 43.7997C131.707 43.7997 128.323 48.7487 128.323 54.4352C128.323 58.1058 130.128 61.7024 133.819 61.7024C136.474 61.7024 137.945 59.8315 137.945 59.8315L137.75 61.4294H142.061L145.447 40.1257L141.004 40.1329ZM138.946 51.8239C138.946 54.1901 137.787 57.3508 135.384 57.3508C133.789 57.3508 133.042 55.9975 133.042 53.8734C133.042 50.4003 134.585 48.1086 136.532 48.1086C138.128 48.1081 138.946 49.216 138.946 51.8239Z" fill="white"/>
<path fill-rule="evenodd" clip-rule="evenodd" d="M18.6753 61.4479L21.3734 45.3644L21.7694 61.4479H24.8231L30.5194 45.3644L27.9961 61.4479H32.5334L36.0278 40.1157H29.0113L24.6417 53.2043L24.4144 40.1157H17.9466L14.402 61.4479H18.6753Z" fill="white"/>
<path fill-rule="evenodd" clip-rule="evenodd" d="M86.9615 61.4773C88.2515 54.0619 88.4907 48.0406 91.5693 49.1428C92.1081 46.2727 92.6282 45.1625 93.2164 43.9478C93.2164 43.9478 92.9406 43.8894 92.3618 43.8894C90.3769 43.8894 88.9064 46.6303 88.9064 46.6303L89.3015 44.1131H85.1748L82.4101 61.4773H86.9615Z" fill="white"/>
<path fill-rule="evenodd" clip-rule="evenodd" d="M114.519 43.6824C111.479 43.6824 109.15 44.6696 109.15 44.6696L108.507 48.5288C108.507 48.5288 110.43 47.7391 113.337 47.7391C114.987 47.7391 116.193 47.9267 116.193 49.2824C116.193 50.1058 116.046 50.4097 116.046 50.4097C116.046 50.4097 114.745 50.2996 114.141 50.2996C110.309 50.2996 106.282 51.953 106.282 56.9381C106.282 60.8661 108.923 61.7674 110.56 61.7674C113.687 61.7674 115.035 59.7165 115.107 59.7103L114.962 61.4222H118.864L120.605 49.0849C120.605 43.8509 116.088 43.6824 114.519 43.6824ZM115.469 53.7276C115.554 54.4812 115.002 58.0137 112.332 58.0137C110.956 58.0137 110.599 56.9509 110.599 56.3222C110.599 55.0961 111.258 53.6241 114.505 53.6241C115.26 53.625 115.341 53.7067 115.469 53.7276Z" fill="white"/>
<path fill-rule="evenodd" clip-rule="evenodd" d="M124.172 61.4773C125.462 54.0619 125.701 48.0406 128.779 49.1428C129.319 46.2727 129.839 45.1625 130.427 43.9478C130.427 43.9478 130.151 43.8894 129.573 43.8894C127.588 43.8894 126.117 46.6303 126.117 46.6303L126.512 44.1131H122.386L119.621 61.4773H124.172Z" fill="white"/>
</svg>
