<?xml version="1.0" encoding="utf-8"?>
<svg width="160" height="100" viewBox="0 0 160 100" fill="none" xmlns="http://www.w3.org/2000/svg">
<path fill-rule="evenodd" clip-rule="evenodd" d="M148 1.01147e-06C140 1.76645e-06 55.3008 -1.60318e-06 8 1.01147e-06C4 1.23258e-06 0 4 0 8V88C-4.63e-07 96 4 100 12 100C56.6232 100 140 100 148 100C156 100 160 96 160 88V12C160 4 156 1.01147e-06 148 1.01147e-06Z" fill="white"/>
<path d="M27.68 32.0012H16.8685C16.1286 32.0012 15.4995 32.5382 15.384 33.268L11.0114 60.961C10.9244 61.5072 11.3481 62 11.9029 62H17.0645C17.8043 62 18.4335 61.4632 18.5489 60.732L19.7282 53.2629C19.8421 52.5316 20.4728 51.9946 21.211 51.9946H24.6336C31.7554 51.9946 35.8656 48.5522 36.9391 41.7304C37.4228 38.7458 36.9596 36.4008 35.5605 34.7586C34.0239 32.955 31.2985 32.0012 27.68 32.0012ZM28.9273 42.1157C28.3361 45.9909 25.3719 45.9909 22.5058 45.9909H20.8744L22.0189 38.7538C22.0869 38.3163 22.4662 37.9942 22.909 37.9942H23.6566C25.609 37.9942 27.4508 37.9942 28.4024 39.1058C28.97 39.7691 29.1439 40.7544 28.9273 42.1157Z" fill="#283B82"/>
<path d="M59.9973 41.9908H54.8202C54.3792 41.9908 53.9983 42.3129 53.93 42.7504L53.7011 44.1968L53.3389 43.6725C52.2181 42.0475 49.7186 41.5044 47.2241 41.5044C41.503 41.5044 36.6165 45.8328 35.6649 51.9045C35.1701 54.9332 35.8736 57.8294 37.5935 59.8489C39.1712 61.706 41.4287 62.4797 44.1147 62.4797C48.7245 62.4797 51.2807 59.5191 51.2807 59.5191L51.0498 60.956C50.9628 61.5056 51.3866 61.9982 51.9384 61.9982H56.6017C57.3431 61.9982 57.9692 61.4613 58.0863 60.7303L60.8843 43.0298C60.973 42.485 60.5508 41.9908 59.9973 41.9908ZM52.7808 52.0561C52.2814 55.0105 49.9337 56.9941 46.9397 56.9941C45.4363 56.9941 44.2347 56.5124 43.4632 55.5996C42.6981 54.6932 42.4072 53.4031 42.6507 51.966C43.117 49.0368 45.5043 46.9888 48.4524 46.9888C49.9228 46.9888 51.1178 47.4766 51.9051 48.3971C52.6941 49.3272 53.0068 50.6253 52.7808 52.0561Z" fill="#283B82"/>
<path d="M87.5707 41.9909H82.3682C81.8718 41.9909 81.4054 42.2372 81.1241 42.6494L73.9485 53.2074L70.907 43.0615C70.7157 42.4267 70.1293 41.9909 69.4653 41.9909H64.3528C63.7314 41.9909 63.3 42.5972 63.4976 43.1815L69.2282 59.9802L63.8406 67.5774C63.4168 68.1757 63.8436 68.9988 64.5758 68.9988H69.7721C70.2652 68.9988 70.7269 68.7586 71.0066 68.3544L88.3106 43.4043C88.7248 42.8072 88.2997 41.9909 87.5707 41.9909Z" fill="#283B82"/>
<path d="M104.796 32.0012H93.9828C93.2446 32.0012 92.6153 32.5382 92.4998 33.268L88.1272 60.961C88.0404 61.5072 88.4639 62 89.0157 62H94.5646C95.0798 62 95.5211 61.6243 95.6016 61.1126L96.8425 53.2629C96.9562 52.5316 97.5872 51.9946 98.3254 51.9946H101.746C108.87 51.9946 112.978 48.5522 114.053 41.7304C114.539 38.7458 114.072 36.4008 112.673 34.7586C111.138 32.955 108.414 32.0012 104.796 32.0012ZM106.043 42.1157C105.454 45.9909 102.49 45.9909 99.6217 45.9909H97.9919L99.1381 38.7538C99.2061 38.3163 99.5821 37.9942 100.026 37.9942H100.774C102.725 37.9942 104.568 37.9942 105.52 39.1058C106.087 39.7691 106.26 40.7544 106.043 42.1157Z" fill="#469BDB"/>
<path d="M137.112 41.9908H131.938C131.494 41.9908 131.116 42.3129 131.049 42.7504L130.82 44.1968L130.456 43.6725C129.336 42.0475 126.838 41.5044 124.343 41.5044C118.622 41.5044 113.737 45.8328 112.785 51.9045C112.292 54.9332 112.993 57.8294 114.713 59.8489C116.294 61.706 118.548 62.4797 121.234 62.4797C125.843 62.4797 128.4 59.5191 128.4 59.5191L128.169 60.956C128.082 61.5056 128.506 61.9982 129.061 61.9982H133.723C134.461 61.9982 135.09 61.4613 135.205 60.7303L138.005 43.0298C138.09 42.485 137.667 41.9908 137.112 41.9908ZM129.895 52.0561C129.399 55.0105 127.048 56.9941 124.054 56.9941C122.554 56.9941 121.349 56.5124 120.578 55.5996C119.813 54.6932 119.525 53.4031 119.765 51.966C120.235 49.0368 122.619 46.9888 125.567 46.9888C127.037 46.9888 128.232 47.4766 129.019 48.3971C129.811 49.3272 130.124 50.6253 129.895 52.0561Z" fill="#469BDB"/>
<path d="M143.216 32.761L138.778 60.961C138.691 61.5072 139.115 62 139.667 62H144.128C144.869 62 145.498 61.4632 145.612 60.732L149.988 33.0407C150.075 32.4941 149.651 31.9999 149.1 31.9999H144.104C143.663 32.0012 143.284 32.3238 143.216 32.761Z" fill="#469BDB"/>
</svg>
  