        <svg xmlns:rdf="http://www.w3.org/1999/02/22-rdf-syntax-ns#" xmlns:svg="http://www.w3.org/2000/svg" xmlns="http://www.w3.org/2000/svg" version="1.1" viewBox="0 0 50.000001 62.50000125" x="0px" y="0px"><g transform="translate(0,-1002.3622)"><rect y="1026.9871" x="0.91559875" height="0.74997121" width="0.20737724" fill="#f706060" fill-opacity="1" stroke-width="0"/><rect width="0.20737983" height="3.520968" x="1.344709" y="1025.6017" fill="#f706060" fill-opacity="1" stroke-width="0"/><rect y="1026.2753" x="1.7738204" height="2.1739619" width="0.20738164" fill="#f706060" fill-opacity="1" stroke-width="0"/><rect width="0.20737724" height="6.00775" x="2.202935" y="1024.3583" fill="#f706060" fill-opacity="1" stroke-width="0"/><rect y="1023.0889" x="2.6320484" height="8.5463409" width="0.20737511" fill="#f706060" fill-opacity="1" stroke-width="0"/><rect width="0.20737883" height="4.4017029" x="3.0611587" y="1025.1613" fill="#f706060" fill-opacity="1" stroke-width="0"/><rect y="1026.3788" x="3.4902701" height="1.9667301" width="0.20738198" fill="#f706060" fill-opacity="1" stroke-width="0"/><rect width="0.20738372" height="1.0341885" x="3.9193816" y="1026.8452" fill="#f706060" fill-opacity="1" stroke-width="0"/><rect y="1025.1873" x="4.348496" height="4.349895" width="0.20737889" fill="#f706060" fill-opacity="1" stroke-width="0"/><rect width="0.20737568" height="7.8210287" x="4.7776098" y="1023.4517" fill="#f706060" fill-opacity="1" stroke-width="0"/><rect y="1025.3944" x="5.2067208" height="3.935431" width="0.20737936" fill="#f706060" fill-opacity="1" stroke-width="0"/><rect  width="0.20738223" height="1.8113066" x="5.6358309" y="1026.4567" fill="#f706060" fill-opacity="1" stroke-width="0"/><rect y="1025.5239" x="6.0649452" height="3.6763916" width="0.20737964" fill="#f706060" fill-opacity="1" stroke-width="0"/><rect width="0.20738214" height="1.8631142" x="6.4940557" y="1026.4305" fill="#f706060" fill-opacity="1" stroke-width="0"/><rect y="1026.1976" x="6.9231677" height="2.3293855" width="0.20738141" fill="#f706060" fill-opacity="1" stroke-width="0"/><rect width="0.20738296" height="1.3968436" x="7.3522787" y="1026.6638" fill="#f706060" fill-opacity="1" stroke-width="0"/><rect y="1025.9644" x="7.7813911" height="2.7956569" width="0.20738076" fill="#f706060" fill-opacity="1" stroke-width="0"/><rect width="0.20737724" height="6.00775" x="8.2105055" y="1024.3583" fill="#f706060" fill-opacity="1" stroke-width="0"/><rect y="1022.1307" x="8.6396198" height="10.463237" width="0.20737369" fill="#f706060" fill-opacity="1" stroke-width="0"/><rect width="0.20737186" height="13.260869" x="9.0687313" y="1020.7318" fill="#f706060" fill-opacity="1" stroke-width="0"/><rect y="1021.3536" x="9.4978447" height="12.017476" width="0.20737265" fill="#f706060" fill-opacity="1" stroke-width="0"/><rect width="0.20737495" height="8.7535734" x="9.9269543" y="1022.9855" fill="#f706060" fill-opacity="1" stroke-width="0"/><rect y="1024.3583" x="10.356065" height="6.00775" width="0.20737724" fill="#f706060" fill-opacity="1" stroke-width="0"/><rect width="0.20737422" height="9.7379246" x="10.785178" y="1022.4932" fill="#f706060" fill-opacity="1" stroke-width="0"/><rect y="1023.8145" x="11.21429" height="7.095717" width="0.20737629" fill="#f706060" fill-opacity="1" stroke-width="0"/><rect width="0.20737241" height="12.380133" x="11.643402" y="1021.1722" fill="#f706060" fill-opacity="1" stroke-width="0"/><rect y="1022.7783" x="12.072513" height="9.1680374" width="0.20737463" style="" fill="#f706060" fill-opacity="1" stroke-width="0"/><rect style="" width="0.20737724" height="6.00775" x="12.501623" y="1024.3583" fill="#f706060" fill-opacity="1" stroke-width="0"/><rect y="1025.6796" x="12.930734" height="3.3655438" width="0.20738003" style="" fill="#f706060" fill-opacity="1" stroke-width="0"/><rect style="" width="0.20737523" height="8.3909168" x="13.359848" y="1023.1669" fill="#f706060" fill-opacity="1" stroke-width="0"/><rect y="1023.7626" x="13.788959" height="7.1993332" width="0.20737618" style="" fill="#f706060" fill-opacity="1" stroke-width="0"/><rect style="" width="0.20737971" height="3.6245837" x="14.21807" y="1025.55" fill="#f706060" fill-opacity="1" stroke-width="0"/><rect y="1025.9644" x="14.647183" height="2.7956569" width="0.20738076" style="" fill="#f706060" fill-opacity="1" stroke-width="0"/><rect style="" width="0.2073825" height="1.6558828" x="15.076297" y="1026.5343" fill="#f706060" fill-opacity="1" stroke-width="0"/><rect y="1025.4203" x="15.505409" height="3.8836234" width="0.20737942" style="" fill="#f706060" fill-opacity="1" stroke-width="0"/><rect style="" width="0.20737414" height="9.8415413" x="15.934526" y="1022.4413" fill="#f706060" fill-opacity="1" stroke-width="0"/><rect y="1023.5035" x="16.363636" height="7.7174129" width="0.20737575" style="" fill="#f706060" fill-opacity="1" stroke-width="0"/><rect style="" width="0.20738308" height="1.3450357" x="16.792746" y="1026.6897" fill="#f706060" fill-opacity="1" stroke-width="0"/><rect y="1024.3583" x="17.650974" height="6.00775" width="0.20737724" style="" fill="#f706060" fill-opacity="1" stroke-width="0"/><rect style="" width="0.20738022" height="3.2101202" x="17.221859" y="1025.7572" fill="#f706060" fill-opacity="1" stroke-width="0"/><rect style="" width="0.20738062" height="2.8992727" x="18.509197" y="1025.9125" fill="#f706060" fill-opacity="1" stroke-width="0"/><rect y="1026.5862" x="18.938311" height="1.5522671" width="0.20738268" style="" fill="#f706060" fill-opacity="1" stroke-width="0"/><rect style="" width="0.20738043" height="3.0546963" x="18.080086" y="1025.8348" fill="#f706060" fill-opacity="1" stroke-width="0"/><rect style="" width="0.20738029" height="3.1583121" x="19.367424" y="1025.783" fill="#f706060" fill-opacity="1" stroke-width="0"/><rect y="1025.1354" x="19.796539" height="4.4535108" width="0.20737877" style="" fill="#f706060" fill-opacity="1" stroke-width="0"/><rect y="1025.5239" x="20.225651" height="3.6763916" width="0.20737964" style="" fill="#f706060" fill-opacity="1" stroke-width="0"/><rect style="" width="0.20737855" height="4.6607428" x="20.654764" y="1025.0317" fill="#f706060" fill-opacity="1" stroke-width="0"/><rect y="1026.3529" x="21.083876" height="2.018538" width="0.20738189" style="" fill="#f706060" fill-opacity="1" stroke-width="0"/><rect style="" width="0.20738317" height="1.2932278" x="21.512989" y="1026.7157" fill="#f706060" fill-opacity="1" stroke-width="0"/><rect y="1027.0264" x="21.942099" height="0.67153394" width="0.20738462" style="" fill="#f706060" fill-opacity="1" stroke-width="0"/><rect style="" width="0.20738289" height="1.4486513" x="22.371214" y="1026.6378" fill="#f706060" fill-opacity="1" stroke-width="0"/><rect y="1025.2908" x="22.800329" height="4.1426635" width="0.20737912" style="" fill="#f706060" fill-opacity="1" stroke-width="0"/><rect style="" width="0.20738091" height="2.6920409" x="23.658554" y="1026.0162" fill="#f706060" fill-opacity="1" stroke-width="0"/><rect y="1026.4567" x="23.229441" height="1.8113066" width="0.20738223" style="" fill="#f706060" fill-opacity="1" stroke-width="0"/><rect y="1023.0113" x="24.516783" height="8.7017651" width="0.20737498" style="" fill="#f706060" fill-opacity="1" stroke-width="0"/><rect style="" width="0.20737681" height="5.2824359" x="24.945894" y="1024.7211" fill="#f706060" fill-opacity="1" stroke-width="0"/><rect y="1022.4155" x="24.087671" height="9.8933487" width="0.2073741" style="" fill="#f706060" fill-opacity="1" stroke-width="0"/><rect y="1025.783" x="25.375006" height="3.1583121" width="0.20738029" style="" fill="#f706060" fill-opacity="1" stroke-width="0"/><rect style="" width="0.20737724" height="6.00775" x="25.804121" y="1024.3583" fill="#f706060" fill-opacity="1" stroke-width="0"/><rect style="" width="0.20738029" height="3.1583121" x="26.233231" y="1025.783" fill="#f706060" fill-opacity="1" stroke-width="0"/><rect y="1026.6638" x="26.662344" height="1.3968436" width="0.20738296" style="" fill="#f706060" fill-opacity="1" stroke-width="0"/><rect style="" width="0.20738016" height="3.2619281" x="27.091457" y="1025.7312" fill="#f706060" fill-opacity="1" stroke-width="0"/><rect y="1024.3583" x="27.520573" height="6.00775" width="0.20737724" style="" fill="#f706060" fill-opacity="1" stroke-width="0"/><rect style="" width="0.20737563" height="7.8728366" x="27.949684" y="1023.4259" fill="#f706060" fill-opacity="1" stroke-width="0"/><rect y="1022.6746" x="28.378799" height="9.3752689" width="0.20737448" style="" fill="#f706060" fill-opacity="1" stroke-width="0"/><rect style="" width="0.20737724" height="6.00775" x="28.807911" y="1024.3583" fill="#f706060" fill-opacity="1" stroke-width="0"/><rect y="1026.2753" x="29.666134" height="2.1739619" width="0.20738164" style="" fill="#f706060" fill-opacity="1" stroke-width="0"/><rect style="" width="0.20738003" height="3.3655438" x="29.237022" y="1025.6796" fill="#f706060" fill-opacity="1" stroke-width="0"/><rect style="" width="0.20738016" height="3.2619281" x="30.524361" y="1025.7312" fill="#f706060" fill-opacity="1" stroke-width="0"/><rect y="1026.4048" x="30.953474" height="1.9149221" width="0.20738205" style="" fill="#f706060" fill-opacity="1" stroke-width="0"/><rect style="" width="0.20738055" height="2.9510806" x="30.095247" y="1025.8867" fill="#f706060" fill-opacity="1" stroke-width="0"/><rect style="" width="0.20738022" height="3.2101202" x="31.382586" y="1025.7572" fill="#f706060" fill-opacity="1" stroke-width="0"/><rect y="1024.3583" x="31.811703" height="6.00775" width="0.20737724" style="" fill="#f706060" fill-opacity="1" stroke-width="0"/><rect y="1023.374" x="32.24081" height="7.9764528" width="0.20737556" style="" fill="#f706060" fill-opacity="1" stroke-width="0"/><rect style="" width="0.20737877" height="4.4535108" x="32.669922" y="1025.1354" fill="#f706060" fill-opacity="1" stroke-width="0"/><rect y="1023.9179" x="33.099033" height="6.8884854" width="0.20737645" style="" fill="#f706060" fill-opacity="1" stroke-width="0"/><rect style="" width="0.20737964" height="3.6763916" x="33.528145" y="1025.5239" fill="#f706060" fill-opacity="1" stroke-width="0"/><rect y="1025.2391" x="33.957256" height="4.2462792" width="0.207379" style="" fill="#f706060" fill-opacity="1" stroke-width="0"/><rect style="" width="0.20737778" height="5.4378624" x="34.386368" y="1024.6432" fill="#f706060" fill-opacity="1" stroke-width="0"/><rect y="1024.3583" x="34.815475" height="6.00775" width="0.20737724" style="" fill="#f706060" fill-opacity="1" stroke-width="0"/><rect style="" width="0.20738198" height="1.9667301" x="35.673695" y="1026.3788" fill="#f706060" fill-opacity="1" stroke-width="0"/><rect y="1025.8091" x="35.244587" height="3.1065044" width="0.20738035" style="" fill="#f706060" fill-opacity="1" stroke-width="0"/><rect y="1026.7415" x="36.531918" height="1.2414199" width="0.20738328" style="" fill="#f706060" fill-opacity="1" stroke-width="0"/><rect style="" width="0.20738111" height="2.536617" x="36.961033" y="1026.0939" fill="#f706060" fill-opacity="1" stroke-width="0"/><rect y="1025.8091" x="36.10281" height="3.1065044" width="0.20738035" style="" fill="#f706060" fill-opacity="1" stroke-width="0"/><rect y="1026.6378" x="37.390137" height="1.4486513" width="0.20738289" style="" fill="#f706060" fill-opacity="1" stroke-width="0"/><rect style="" width="0.20737997" height="3.417352" x="37.819252" y="1025.6534" fill="#f706060" fill-opacity="1" stroke-width="0"/><rect style="" width="0.20737971" height="3.6245837" x="38.248363" y="1025.55" fill="#f706060" fill-opacity="1" stroke-width="0"/><rect y="1024.8506" x="38.677475" height="5.0233984" width="0.20737818" style="" fill="#f706060" fill-opacity="1" stroke-width="0"/><rect style="" width="0.20737997" height="3.417352" x="39.106586" y="1025.6534" fill="#f706060" fill-opacity="1" stroke-width="0"/><rect y="1024.3583" x="39.535698" height="6.00775" width="0.20737724" style="" fill="#f706060" fill-opacity="1" stroke-width="0"/><rect style="" width="0.20737444" height="9.4270763" x="39.964806" y="1022.6488" fill="#f706060" fill-opacity="1" stroke-width="0"/><rect y="1025.0317" x="40.393917" height="4.6607428" width="0.20737855" style="" fill="#f706060" fill-opacity="1" stroke-width="0"/><rect style="" width="0.20738003" height="3.3655438" x="40.823029" y="1025.6796" fill="#f706060" fill-opacity="1" stroke-width="0"/><rect y="1025.7572" x="41.681252" height="3.2101202" width="0.20738022" style="" fill="#f706060" fill-opacity="1" stroke-width="0"/><rect style="" width="0.20738173" height="2.1221538" x="41.252136" y="1026.301" fill="#f706060" fill-opacity="1" stroke-width="0"/><rect style="" width="0.20738158" height="2.2257698" x="42.539467" y="1026.2493" fill="#f706060" fill-opacity="1" stroke-width="0"/><rect y="1026.5343" x="42.968575" height="1.6558828" width="0.2073825" style="" fill="#f706060" fill-opacity="1" stroke-width="0"/><rect style="" width="0.20738308" height="1.3450357" x="42.110355" y="1026.6897" fill="#f706060" fill-opacity="1" stroke-width="0"/><rect style="" width="0.20738395" height="0.93057281" x="43.397686" y="1026.8969" fill="#f706060" fill-opacity="1" stroke-width="0"/><rect y="1020.8613" x="43.826805" height="13.001829" width="0.20737202" style="" fill="#f706060" fill-opacity="1" stroke-width="0"/><rect y="1021.6642" x="44.255913" height="11.395781" width="0.20737307" style="" fill="#f706060" fill-opacity="1" stroke-width="0"/><rect style="" width="0.20737086" height="14.918724" x="44.685028" y="1019.9028" fill="#f706060" fill-opacity="1" stroke-width="0"/><rect y="1020.9908" x="45.114136" height="12.742788" width="0.20737219" style="" fill="#f706060" fill-opacity="1" stroke-width="0"/><rect style="" width="0.20737374" height="10.411429" x="45.543243" y="1022.1565" fill="#f706060" fill-opacity="1" stroke-width="0"/><rect y="1023.4775" x="45.972355" height="7.7692204" width="0.20737572" style="" fill="#f706060" fill-opacity="1" stroke-width="0"/><rect style="" width="0.20737867" height="4.5571265" x="46.401466" y="1025.0835" fill="#f706060" fill-opacity="1" stroke-width="0"/><rect y="1026.2493" x="46.83057" height="2.2257698" width="0.20738158" style="" fill="#f706060" fill-opacity="1" stroke-width="0"/><rect style="" width="0.20738135" height="2.3811934" x="47.688797" y="1026.1715" fill="#f706060" fill-opacity="1" stroke-width="0"/><rect y="1025.8348" x="47.259686" height="3.0546963" width="0.20738043" style="" fill="#f706060" fill-opacity="1" stroke-width="0"/><rect y="1025.7312" x="48.54702" height="3.2619281" width="0.20738016" style="" fill="#f706060" fill-opacity="1" stroke-width="0"/><rect style="" width="0.20738296" height="1.3968436" x="48.976128" y="1026.6638" fill="#f706060" fill-opacity="1" stroke-width="0"/><rect y="1026.6378" x="48.117905" height="1.4486513" width="0.20738289" style="" fill="#f706060" fill-opacity="1" stroke-width="0"/></g></svg>
