<svg width="204" height="203" viewBox="0 0 204 203" fill="none" xmlns="http://www.w3.org/2000/svg">
<path d="M133.197 35.3426C133.197 35.3426 110.024 64.6945 72.9486 47.1866C35.8729 29.6787 -1.20278 77.0531 30.7235 105.89C62.6499 134.726 31.4076 150.572 53.097 168.245C77.7485 188.332 99.2105 147.6 118.778 156.869C161.965 177.326 193.959 169.227 186.75 145.54C174.095 103.96 157.914 101.256 170.272 79.6277C182.63 57.9999 155.355 13.0314 133.197 35.3426Z" fill="#F1E5FF"/>
<path d="M102.805 98.0818V159.662L54.9937 139.011L55.2218 77.6533L102.805 98.0818Z" fill="#8837E9"/>
<path d="M102.806 98.1185V159.698L150.385 139.76V77.8496L102.806 98.1185Z" fill="#AA75E9"/>
<path d="M102.805 98.0818L150.617 78.056L103.181 57.0288L54.9937 77.5554L102.805 98.0818Z" fill="#8837E9"/>
<path d="M41.9371 88.5404L90.0533 111.896C90.1826 111.958 90.329 111.977 90.4699 111.948C90.6107 111.92 90.7384 111.846 90.8331 111.738L102.805 98.0816L54.9937 77.5552L41.83 87.4252C41.74 87.4927 41.6689 87.5822 41.6234 87.6851C41.578 87.788 41.5598 87.9009 41.5705 88.0129C41.5813 88.1249 41.6206 88.2322 41.6848 88.3246C41.749 88.417 41.8359 88.4913 41.9371 88.5404Z" fill="#AA75E9"/>
<path d="M150.617 78.0562L163.896 90.0613C163.977 90.1345 164.038 90.2268 164.075 90.3298C164.111 90.4328 164.121 90.5432 164.104 90.6511C164.087 90.759 164.043 90.8608 163.976 90.9475C163.91 91.0341 163.823 91.1028 163.723 91.1473L116.2 112.357C116.073 112.413 115.932 112.428 115.796 112.399C115.66 112.37 115.537 112.299 115.444 112.195L102.805 98.082L150.617 78.0562Z" fill="#AA75E9"/>
<path d="M103.181 57.0288L150.75 78.0559L157.591 76.4703C157.726 76.4391 157.847 76.3663 157.938 76.2622C158.028 76.1581 158.084 76.028 158.096 75.8905C158.109 75.753 158.078 75.615 158.007 75.4963C157.937 75.3775 157.831 75.284 157.704 75.2291L114.267 56.4081C114.172 56.3669 114.069 56.3488 113.966 56.3553L103.181 57.0288Z" fill="#AA75E9"/>
<path d="M103.181 57.0289L55.8782 77.6534L49.8986 76.6485C49.7601 76.6227 49.6337 76.553 49.5379 76.4497C49.4421 76.3465 49.3821 76.2152 49.3667 76.0752C49.3513 75.9352 49.3814 75.794 49.4525 75.6724C49.5236 75.5508 49.6319 75.4553 49.7615 75.4001L94.2715 56.2179C94.3699 56.1761 94.477 56.1589 94.5835 56.1678L103.181 57.0289Z" fill="#AA75E9"/>
<path d="M152.482 150.097C159.004 150.097 164.292 144.81 164.292 138.287C164.292 131.765 159.004 126.478 152.482 126.478C145.96 126.478 140.672 131.765 140.672 138.287C140.672 144.81 145.96 150.097 152.482 150.097Z" fill="#8837E9" stroke="white" stroke-width="15" stroke-miterlimit="10"/>
<path d="M156.235 134.787C156.04 134.109 155.767 133.558 155.416 133.139C155.076 132.729 154.636 132.414 154.138 132.226C153.063 131.856 151.895 131.856 150.821 132.226C150.323 132.413 149.884 132.728 149.548 133.139C149.191 133.558 148.918 134.109 148.728 134.787C148.538 135.466 148.44 136.295 148.44 137.27V139.261C148.44 140.236 148.538 141.066 148.733 141.748C148.886 142.355 149.167 142.923 149.557 143.412C149.896 143.826 150.336 144.145 150.835 144.339C151.904 144.723 153.074 144.723 154.143 144.339C154.639 144.145 155.076 143.826 155.412 143.412C155.796 142.92 156.073 142.354 156.226 141.748C156.417 141.066 156.514 140.236 156.514 139.261H156.524V137.27C156.523 136.294 156.426 135.465 156.235 134.787ZM154.455 139.558C154.462 140.089 154.419 140.62 154.328 141.143C154.267 141.516 154.139 141.874 153.953 142.202C153.809 142.455 153.596 142.661 153.338 142.797C153.074 142.924 152.783 142.988 152.489 142.982C152.196 142.987 151.905 142.923 151.64 142.797C151.38 142.661 151.162 142.455 151.011 142.202C150.82 141.874 150.688 141.516 150.621 141.143C150.521 140.621 150.475 140.09 150.484 139.558V136.953C150.476 136.423 150.52 135.894 150.616 135.372C150.681 135.007 150.811 134.657 151.002 134.338C151.153 134.095 151.369 133.899 151.626 133.772C151.893 133.657 152.18 133.597 152.47 133.597C152.761 133.597 153.048 133.657 153.314 133.772C153.573 133.896 153.79 134.093 153.939 134.338C154.129 134.657 154.26 135.007 154.324 135.372C154.421 135.894 154.465 136.423 154.456 136.953V139.558H154.455Z" fill="white"/>
</svg>
