<svg width="32" height="33" viewBox="0 0 32 33" fill="none" xmlns="http://www.w3.org/2000/svg">
<path fill-rule="evenodd" clip-rule="evenodd" d="M28 16.5C28 23.1274 22.6274 28.5 16 28.5C9.37258 28.5 4 23.1274 4 16.5C4 9.87258 9.37258 4.5 16 4.5C22.6274 4.5 28 9.87258 28 16.5ZM17.3333 11.1667C17.3333 11.903 16.7364 12.5 16 12.5C15.2636 12.5 14.6667 11.903 14.6667 11.1667C14.6667 10.4303 15.2636 9.83333 16 9.83333C16.7364 9.83333 17.3333 10.4303 17.3333 11.1667ZM17 23.1667V15.1667H15V23.1667H17Z" fill="#33363F"/>
</svg>
