<svg width="182" height="180" viewBox="0 0 182 180" fill="none" xmlns="http://www.w3.org/2000/svg">
<path d="M45.5921 29.1757C45.5921 29.1757 72.9565 49.9409 114.558 11.1131C151.504 -23.3689 181.67 31.0363 181.881 57.0903C182.154 90.8409 144.935 117.846 162.998 140.013C181.06 162.181 127.177 198.787 98.1373 167.107C62.0124 127.698 52.2258 159.718 31.6348 159.718C16.8564 159.718 -13.4851 122.997 7.00414 95.678C24.2456 72.69 14.8425 65.06 10.2883 57.0903C3.72016 45.596 19.3195 14.3973 45.5921 29.1757Z" fill="#F1E5FF"/>
<path d="M153.461 124.242L52.9933 155.088C51.3287 155.598 49.5294 155.426 47.9913 154.61C46.4531 153.794 45.3021 152.401 44.7913 150.736L33.0425 112.477L23.2888 80.7034L23.1 80.0958L24.4381 78.5523L68.0999 28.2083C68.2999 27.9753 68.5618 27.8037 68.8554 27.7136C69.1489 27.6234 69.4621 27.6184 69.7583 27.6992L134.175 44.8832L136.121 45.4003L136.721 47.3379L157.813 116.033C158.322 117.698 158.15 119.498 157.334 121.037C156.519 122.576 155.126 123.729 153.461 124.242Z" fill="#8837E9"/>
<path d="M136.721 47.3376L98.642 92.1981V89.7351L134.176 44.8828L136.121 45.4L136.721 47.3376Z" fill="#8837E9"/>
<path d="M153.578 124.203C153.504 124.228 153.423 124.228 153.348 124.203L91.8541 101.37C91.8044 101.352 91.7599 101.321 91.7241 101.282C91.6883 101.243 91.6622 101.196 91.6478 101.145C91.6334 101.094 91.6313 101.04 91.6414 100.988C91.6516 100.936 91.6738 100.887 91.7064 100.845L101.985 88.021L135.729 45.895C135.766 45.8471 135.816 45.8104 135.872 45.7888C135.929 45.7672 135.99 45.7616 136.049 45.7726C136.109 45.7836 136.164 45.8109 136.209 45.8513C136.254 45.8917 136.287 45.9438 136.304 46.0017L157.667 115.591L157.807 116.034C158.314 117.678 158.155 119.456 157.364 120.984C156.573 122.512 155.214 123.668 153.578 124.203Z" fill="#AA75E9"/>
<path d="M87.9281 98.7906L87.3699 99.9566L23.7076 80.2847C23.6494 80.2667 23.5874 80.265 23.5282 80.2796C23.4691 80.2942 23.4151 80.3247 23.372 80.3678C23.3289 80.4109 23.2984 80.4649 23.2838 80.524C23.2691 80.5831 23.2709 80.6451 23.2888 80.7033L23.1 80.0957L24.4381 78.5522L87.9281 98.7906Z" fill="#8837E9"/>
<path d="M91.1543 101.582L53.0673 154.989C53.0235 155.056 52.9559 155.103 52.8784 155.121C51.2248 155.596 49.4506 155.403 47.938 154.583C46.4254 153.763 45.2954 152.382 44.7913 150.737L33.0425 112.477L23.2888 80.7036C23.2709 80.6454 23.2691 80.5834 23.2838 80.5242C23.2984 80.4651 23.3289 80.4111 23.372 80.368C23.4151 80.325 23.4691 80.2945 23.5282 80.2798C23.5874 80.2652 23.6494 80.267 23.7076 80.285L87.3694 99.9565L90.9814 101.073C91.0313 101.089 91.0769 101.116 91.1144 101.153C91.1518 101.189 91.1801 101.234 91.197 101.284C91.2138 101.333 91.2188 101.386 91.2113 101.438C91.2039 101.49 91.1844 101.539 91.1543 101.582Z" fill="#AA75E9"/>
<path d="M153.459 124.243L52.9973 155.088C51.4763 155.55 49.8394 155.447 48.3888 154.796C46.9383 154.146 45.772 152.993 45.1053 151.549C44.9928 151.303 44.943 151.033 44.9601 150.762C44.9772 150.492 45.0607 150.23 45.2033 150L85.2412 84.7815C85.4503 84.4409 85.7765 84.1882 86.1586 84.0709C86.5407 83.9535 86.9525 83.9796 87.3168 84.1442L157.055 115.657C157.302 115.768 157.518 115.938 157.684 116.152C157.85 116.366 157.96 116.618 158.005 116.885C158.263 118.454 157.945 120.063 157.11 121.415C156.274 122.768 154.977 123.772 153.459 124.243Z" fill="#AA75E9"/>
<path d="M133.628 21.8528C133.569 21.8527 133.51 21.8375 133.458 21.8085C133.406 21.7795 133.363 21.7378 133.331 21.6872C133.3 21.6366 133.282 21.5788 133.279 21.5194C133.276 21.4599 133.289 21.4007 133.315 21.3474C133.615 20.7416 133.775 20.4094 133.776 20.4085C133.795 20.3655 133.822 20.3267 133.856 20.2944C133.89 20.2622 133.931 20.2372 133.975 20.2209C134.019 20.2046 134.066 20.1974 134.113 20.1996C134.16 20.2019 134.206 20.2136 134.248 20.234C134.291 20.2545 134.328 20.2832 134.359 20.3186C134.39 20.354 134.414 20.3952 134.429 20.4399C134.443 20.4846 134.449 20.5317 134.445 20.5786C134.441 20.6254 134.428 20.671 134.406 20.7126C134.406 20.7126 134.244 21.0471 133.942 21.658C133.913 21.7164 133.868 21.7656 133.813 21.8C133.757 21.8344 133.694 21.8527 133.628 21.8528Z" fill="white"/>
<path d="M98.2846 71.713C98.218 71.713 98.1527 71.6939 98.0966 71.6581C98.0404 71.6223 97.9956 71.5712 97.9675 71.5108C97.9393 71.4505 97.929 71.3833 97.9377 71.3173C97.9464 71.2512 97.9738 71.189 98.0166 71.138C98.469 70.599 98.8986 70.0643 99.294 69.5487C99.3505 69.4751 99.4339 69.4269 99.5259 69.4147C99.618 69.4026 99.7111 69.4275 99.7847 69.484C99.8584 69.5405 99.9066 69.6239 99.9188 69.716C99.9309 69.808 99.906 69.9011 99.8495 69.9747C99.448 70.4983 99.0117 71.0411 98.553 71.588C98.5201 71.6271 98.479 71.6586 98.4326 71.6802C98.3863 71.7018 98.3357 71.713 98.2846 71.713ZM100.777 68.4483C100.713 68.4483 100.651 68.4309 100.596 68.398C100.542 68.3652 100.497 68.3181 100.467 68.2619C100.438 68.2057 100.424 68.1424 100.427 68.0789C100.431 68.0154 100.452 67.9541 100.487 67.9015C100.888 67.3126 101.25 66.7351 101.564 66.1849C101.587 66.145 101.618 66.11 101.654 66.0818C101.69 66.0537 101.732 66.033 101.776 66.0209C101.82 66.0088 101.867 66.0055 101.912 66.0113C101.958 66.0171 102.002 66.0318 102.042 66.0546C102.082 66.0774 102.117 66.1078 102.145 66.1442C102.173 66.1805 102.194 66.222 102.206 66.2664C102.218 66.3107 102.221 66.357 102.216 66.4026C102.21 66.4482 102.195 66.4922 102.172 66.5321C101.849 67.0982 101.477 67.6912 101.066 68.2952C101.034 68.3424 100.991 68.381 100.94 68.4077C100.89 68.4344 100.834 68.4483 100.777 68.4483H100.777ZM100.705 65.1123H100.699C99.9914 65.1155 99.2919 64.9625 98.6504 64.6643C98.6087 64.6448 98.5713 64.6174 98.5403 64.5835C98.5092 64.5496 98.4852 64.5099 98.4695 64.4667C98.4538 64.4235 98.4467 64.3776 98.4488 64.3317C98.4508 64.2858 98.4618 64.2407 98.4813 64.199C98.5007 64.1574 98.5282 64.12 98.5621 64.0889C98.596 64.0579 98.6357 64.0338 98.6789 64.0181C98.7221 64.0024 98.7679 63.9954 98.8138 63.9974C98.8598 63.9994 98.9048 64.0105 98.9465 64.0299C99.4955 64.2846 100.094 64.4149 100.699 64.4116C100.727 64.4116 100.757 64.4116 100.786 64.4116H100.793C100.838 64.4111 100.884 64.4198 100.927 64.437C100.969 64.4542 101.008 64.4796 101.041 64.5118C101.074 64.544 101.1 64.5823 101.118 64.6246C101.136 64.667 101.145 64.7124 101.146 64.7583C101.146 64.8043 101.138 64.8499 101.12 64.8925C101.103 64.9352 101.078 64.974 101.046 65.0068C101.013 65.0396 100.975 65.0657 100.933 65.0837C100.89 65.1017 100.845 65.1111 100.799 65.1116C100.768 65.112 100.736 65.1123 100.705 65.1123H100.705ZM102.789 64.8743C102.709 64.8519 102.636 64.8086 102.577 64.7486C102.519 64.6887 102.478 64.6143 102.458 64.5331C102.439 64.452 102.441 64.3671 102.465 64.2871C102.489 64.2071 102.533 64.1349 102.594 64.0779C102.801 63.5667 102.965 63.0395 103.084 62.5014C103.094 62.4561 103.112 62.413 103.138 62.3747C103.164 62.3364 103.197 62.3037 103.236 62.2784C103.275 62.253 103.318 62.2356 103.364 62.2272C103.409 62.2188 103.456 62.2194 103.501 62.2291C103.546 62.2389 103.589 62.2575 103.627 62.2839C103.665 62.3103 103.698 62.344 103.722 62.383C103.747 62.422 103.764 62.4655 103.772 62.5111C103.78 62.5567 103.779 62.6034 103.769 62.6485C103.691 63.0065 103.592 63.3599 103.475 63.7069C103.794 63.5569 104.121 63.383 104.453 63.1866C104.533 63.1429 104.626 63.132 104.714 63.156C104.802 63.18 104.876 63.2371 104.923 63.3152C104.969 63.3933 104.983 63.4864 104.962 63.5747C104.941 63.663 104.886 63.7397 104.81 63.7886C104.273 64.1098 103.711 64.3865 103.13 64.616L103.111 64.6608C103.084 64.7238 103.039 64.7776 102.982 64.8155C102.925 64.8533 102.858 64.8736 102.789 64.8737L102.789 64.8743ZM97.1161 63.5303C97.0312 63.5304 96.9492 63.4995 96.8854 63.4435C96.3268 62.9761 95.8554 62.4135 95.493 61.7818C95.4691 61.7412 95.4536 61.6962 95.4475 61.6495C95.4414 61.6028 95.4448 61.5554 95.4575 61.51C95.4702 61.4646 95.4919 61.4223 95.5213 61.3855C95.5507 61.3488 95.5873 61.3183 95.6288 61.296C95.6702 61.2737 95.7158 61.2599 95.7627 61.2557C95.8096 61.2514 95.8569 61.2566 95.9017 61.271C95.9466 61.2854 95.988 61.3088 96.0236 61.3396C96.0592 61.3704 96.0883 61.4081 96.109 61.4504C96.4321 62.0083 96.851 62.5048 97.3466 62.9172C97.4001 62.9641 97.438 63.0263 97.4553 63.0953C97.4725 63.1644 97.4683 63.2371 97.4432 63.3037C97.4181 63.3703 97.3733 63.4277 97.3148 63.4681C97.2562 63.5086 97.1867 63.5303 97.1156 63.5303H97.1161ZM106.329 62.682C106.256 62.6821 106.185 62.6592 106.125 62.6166C106.066 62.574 106.021 62.5139 105.998 62.4445C105.974 62.3752 105.973 62.3003 105.994 62.2302C106.015 62.1602 106.058 62.0986 106.116 62.0541C106.619 61.6692 107.142 61.2316 107.672 60.7532C107.706 60.7224 107.746 60.6987 107.789 60.6833C107.833 60.6679 107.879 60.6612 107.924 60.6635C107.97 60.6659 108.015 60.6772 108.057 60.697C108.098 60.7167 108.136 60.7444 108.166 60.7786C108.197 60.8127 108.221 60.8525 108.236 60.8959C108.252 60.9392 108.258 60.9851 108.256 61.031C108.254 61.0769 108.242 61.1219 108.223 61.1634C108.203 61.2049 108.175 61.2421 108.141 61.2729C107.597 61.7637 107.059 62.2136 106.542 62.6098C106.481 62.6562 106.406 62.6812 106.33 62.6809L106.329 62.682ZM103.535 60.8845C103.451 60.8844 103.37 60.8541 103.307 60.7991C103.243 60.7441 103.201 60.6681 103.189 60.5849C103.114 59.9708 102.85 59.395 102.435 58.9363C102.372 58.8682 102.339 58.778 102.343 58.6855C102.346 58.593 102.386 58.5057 102.454 58.4428C102.522 58.3798 102.612 58.3463 102.705 58.3496C102.797 58.3529 102.885 58.3927 102.948 58.4603C103.46 59.0225 103.787 59.7293 103.882 60.484C103.889 60.5295 103.886 60.5758 103.875 60.6204C103.864 60.665 103.844 60.7069 103.816 60.7437C103.789 60.7806 103.754 60.8117 103.715 60.8352C103.675 60.8587 103.632 60.8743 103.586 60.8809C103.569 60.8833 103.552 60.8845 103.535 60.8845ZM95.5803 59.9877C95.5239 59.9877 95.4684 59.9741 95.4184 59.9481C95.3684 59.922 95.3255 59.8842 95.2932 59.838C95.2609 59.7918 95.2403 59.7384 95.2331 59.6825C95.2259 59.6266 95.2323 59.5698 95.2517 59.5169C95.4938 58.8589 96.0217 58.2857 96.7798 57.8601C96.8608 57.8147 96.9565 57.8032 97.0459 57.8283C97.1352 57.8534 97.211 57.9129 97.2565 57.9939C97.3019 58.0748 97.3134 58.1705 97.2883 58.2599C97.2632 58.3493 97.2037 58.4251 97.1227 58.4705C96.5122 58.8134 96.0924 59.2586 95.9089 59.7585C95.8842 59.8258 95.8394 59.8838 95.7806 59.9248C95.7219 59.9658 95.652 59.9877 95.5803 59.9877ZM109.391 59.9376C109.322 59.9376 109.255 59.9172 109.197 59.8789C109.14 59.8407 109.095 59.7863 109.068 59.7227C109.042 59.659 109.034 59.5889 109.048 59.5211C109.061 59.4534 109.093 59.391 109.142 59.3419C109.598 58.8799 110.069 58.3791 110.542 57.8551C110.604 57.7862 110.691 57.7448 110.784 57.74C110.877 57.7353 110.967 57.7676 111.036 57.8297C111.105 57.8919 111.147 57.979 111.151 58.0717C111.156 58.1644 111.124 58.2552 111.062 58.3241C110.582 58.8561 110.104 59.3634 109.64 59.8333C109.608 59.8664 109.569 59.8926 109.526 59.9105C109.483 59.9284 109.437 59.9376 109.391 59.9376ZM100.938 58.0309C100.907 58.0309 100.876 58.0267 100.846 58.0186C100.224 57.8576 99.5778 57.8165 98.9408 57.8975C98.8951 57.903 98.8489 57.8995 98.8046 57.8871C98.7603 57.8748 98.7189 57.8538 98.6827 57.8254C98.6466 57.7971 98.6164 57.7619 98.5938 57.7218C98.5712 57.6818 98.5568 57.6377 98.5513 57.592C98.5458 57.5464 98.5493 57.5001 98.5617 57.4559C98.574 57.4116 98.595 57.3702 98.6233 57.334C98.6517 57.2979 98.6869 57.2676 98.727 57.2451C98.767 57.2225 98.8111 57.2081 98.8568 57.2025C99.5832 57.1106 100.321 57.1582 101.029 57.3425C101.111 57.3646 101.182 57.4158 101.23 57.4864C101.277 57.5571 101.296 57.6424 101.285 57.7266C101.274 57.8108 101.233 57.888 101.169 57.9439C101.105 57.9998 101.023 58.0306 100.938 58.0305V58.0309ZM112.152 56.8873C112.085 56.8872 112.02 56.8681 111.964 56.8323C111.908 56.7964 111.863 56.7453 111.835 56.6849C111.807 56.6244 111.797 56.5573 111.805 56.4912C111.814 56.4252 111.841 56.363 111.884 56.312C112.308 55.808 112.744 55.2746 113.179 54.7255C113.208 54.6888 113.243 54.658 113.283 54.635C113.324 54.6121 113.368 54.5973 113.414 54.5917C113.46 54.5861 113.507 54.5896 113.552 54.6022C113.596 54.6148 113.638 54.6361 113.674 54.665C113.711 54.6938 113.741 54.7296 113.763 54.7702C113.786 54.8108 113.8 54.8555 113.805 54.9016C113.81 54.9478 113.805 54.9944 113.792 55.0389C113.779 55.0833 113.757 55.1247 113.728 55.1606C113.288 55.7149 112.848 56.2539 112.42 56.7625C112.387 56.8016 112.346 56.833 112.3 56.8546C112.254 56.8761 112.203 56.8873 112.152 56.8873H112.152ZM114.713 53.6657C114.648 53.6657 114.584 53.6475 114.529 53.6132C114.474 53.5789 114.429 53.5299 114.4 53.4716C114.371 53.4133 114.359 53.3481 114.365 53.2833C114.371 53.2185 114.395 53.1567 114.434 53.1047C114.834 52.5754 115.244 52.0206 115.653 51.4557C115.708 51.3805 115.79 51.33 115.882 51.3154C115.973 51.3007 116.067 51.323 116.142 51.3775C116.217 51.4319 116.268 51.514 116.283 51.6057C116.297 51.6974 116.275 51.7911 116.22 51.8663C115.808 52.4351 115.395 52.9937 114.992 53.5267C114.96 53.5698 114.918 53.6048 114.869 53.629C114.821 53.6531 114.768 53.6657 114.714 53.6657H114.713ZM117.129 50.3337C117.065 50.3337 117.002 50.3161 116.948 50.2829C116.893 50.2496 116.848 50.2021 116.819 50.1454C116.789 50.0887 116.776 50.0249 116.78 49.9611C116.784 49.8973 116.806 49.8358 116.842 49.7834C117.224 49.2374 117.615 48.6674 118.004 48.0911C118.056 48.0141 118.137 47.961 118.228 47.9434C118.319 47.9257 118.413 47.945 118.49 47.997C118.567 48.049 118.62 48.1294 118.638 48.2205C118.656 48.3117 118.636 48.4061 118.584 48.4831C118.192 49.0624 117.8 49.6348 117.417 50.1843C117.384 50.2305 117.341 50.2682 117.291 50.2941C117.241 50.3201 117.186 50.3337 117.129 50.3336L117.129 50.3337ZM119.434 46.9235C119.37 46.9234 119.309 46.9063 119.254 46.874C119.2 46.8416 119.156 46.7952 119.126 46.7397C119.096 46.6841 119.081 46.6215 119.084 46.5585C119.087 46.4954 119.107 46.4343 119.141 46.3815C119.511 45.8168 119.887 45.2353 120.259 44.6532C120.309 44.575 120.388 44.5198 120.478 44.4997C120.569 44.4797 120.664 44.4965 120.742 44.5465C120.82 44.5964 120.876 44.6754 120.896 44.766C120.916 44.8567 120.899 44.9516 120.849 45.0298C120.476 45.6143 120.098 46.1983 119.727 46.7658C119.695 46.8142 119.651 46.854 119.6 46.8815C119.549 46.909 119.492 46.9233 119.434 46.9233L119.434 46.9235ZM121.65 43.4515C121.588 43.4514 121.527 43.4347 121.473 43.403C121.419 43.3713 121.375 43.3258 121.345 43.2713C121.314 43.2167 121.299 43.1551 121.301 43.0927C121.302 43.0303 121.321 42.9695 121.354 42.9165C121.708 42.3469 122.07 41.7582 122.43 41.1665C122.479 41.0872 122.556 41.0303 122.647 41.0084C122.737 40.9864 122.832 41.0012 122.911 41.0495C122.991 41.0978 123.048 41.1756 123.069 41.2658C123.091 41.356 123.077 41.4512 123.028 41.5305C122.667 42.1241 122.304 42.7149 121.948 43.2864C121.916 43.3367 121.872 43.3781 121.821 43.4069C121.769 43.4356 121.71 43.4507 121.651 43.4506L121.65 43.4515ZM123.79 39.9352C123.728 39.9352 123.668 39.9187 123.614 39.8876C123.561 39.8564 123.517 39.8117 123.486 39.758C123.456 39.7042 123.44 39.6434 123.441 39.5816C123.441 39.5198 123.458 39.4593 123.49 39.4062C123.844 38.8124 124.192 38.2222 124.534 37.6357C124.557 37.5954 124.587 37.56 124.624 37.5316C124.66 37.5031 124.702 37.4823 124.747 37.4702C124.792 37.4581 124.839 37.455 124.885 37.4611C124.931 37.4672 124.975 37.4824 125.015 37.5058C125.055 37.5292 125.09 37.5602 125.118 37.5972C125.146 37.6343 125.166 37.6764 125.178 37.7213C125.189 37.7662 125.191 37.813 125.185 37.8589C125.178 37.9047 125.162 37.9488 125.138 37.9885C124.795 38.5765 124.446 39.1684 124.091 39.7643C124.06 39.8163 124.016 39.8594 123.964 39.8893C123.911 39.9192 123.851 39.9349 123.791 39.9349L123.79 39.9352ZM125.866 36.3802C125.805 36.3802 125.744 36.364 125.691 36.3333C125.638 36.3027 125.594 36.2586 125.563 36.2056C125.533 36.1525 125.516 36.0923 125.516 36.031C125.516 35.9697 125.532 35.9094 125.563 35.8562C125.909 35.2522 126.247 34.6562 126.577 34.0682C126.6 34.028 126.63 33.9925 126.666 33.964C126.702 33.9354 126.744 33.9142 126.788 33.9017C126.832 33.8892 126.879 33.8855 126.925 33.891C126.97 33.8965 127.015 33.9109 127.055 33.9335C127.095 33.9561 127.13 33.9864 127.159 34.0226C127.187 34.0589 127.208 34.1005 127.22 34.1449C127.233 34.1893 127.236 34.2357 127.231 34.2814C127.225 34.3271 127.21 34.3713 127.187 34.4114C126.856 35.0002 126.517 35.5976 126.17 36.2034C126.139 36.2568 126.095 36.3011 126.042 36.3319C125.988 36.3627 125.928 36.379 125.866 36.3789L125.866 36.3802ZM127.885 32.7917C127.824 32.7917 127.764 32.7757 127.711 32.7455C127.658 32.7153 127.614 32.6718 127.583 32.6193C127.553 32.5669 127.536 32.5073 127.535 32.4465C127.534 32.3856 127.549 32.3256 127.579 32.2723C127.919 31.6563 128.248 31.0551 128.567 30.4687C128.612 30.3872 128.686 30.3265 128.775 30.3002C128.864 30.2739 128.96 30.284 129.042 30.3284C129.123 30.3727 129.184 30.4476 129.21 30.5366C129.237 30.6256 129.227 30.7215 129.182 30.803C128.863 31.3902 128.533 31.9928 128.191 32.611C128.161 32.6656 128.117 32.711 128.063 32.7426C128.009 32.7743 127.948 32.7909 127.885 32.7909L127.885 32.7917ZM129.851 29.173C129.791 29.1729 129.732 29.1571 129.679 29.1273C129.627 29.0974 129.583 29.0545 129.552 29.0026C129.521 28.9508 129.504 28.8918 129.502 28.8314C129.501 28.771 129.515 28.7112 129.543 28.6579C129.881 28.0252 130.203 27.4192 130.507 26.8399C130.528 26.7983 130.557 26.7613 130.592 26.731C130.627 26.7008 130.668 26.6778 130.713 26.6636C130.757 26.6494 130.804 26.6441 130.85 26.6481C130.896 26.6521 130.941 26.6654 130.983 26.687C131.024 26.7087 131.06 26.7383 131.09 26.7742C131.119 26.8101 131.142 26.8515 131.155 26.8961C131.168 26.9407 131.173 26.9874 131.168 27.0337C131.163 27.08 131.149 27.1248 131.126 27.1656C130.822 27.7449 130.5 28.3523 130.16 28.9878C130.13 29.0435 130.086 29.0901 130.032 29.1226C129.977 29.155 129.915 29.1722 129.852 29.1722L129.851 29.173ZM131.768 25.5253C131.708 25.5253 131.649 25.5098 131.597 25.4803C131.544 25.4509 131.5 25.4085 131.469 25.3572C131.438 25.3059 131.421 25.2474 131.418 25.1874C131.416 25.1274 131.43 25.0679 131.457 25.0146C131.806 24.3405 132.119 23.7266 132.395 23.1818C132.416 23.1406 132.445 23.1038 132.479 23.0736C132.514 23.0434 132.555 23.0204 132.599 23.006C132.642 22.9915 132.689 22.9858 132.735 22.9893C132.781 22.9927 132.826 23.0052 132.867 23.0261C132.908 23.0469 132.944 23.0757 132.974 23.1108C133.004 23.1458 133.027 23.1864 133.041 23.2303C133.056 23.2742 133.061 23.3205 133.057 23.3664C133.054 23.4124 133.041 23.4572 133.02 23.4982C132.743 24.0442 132.429 24.6602 132.08 25.3359C132.05 25.3928 132.005 25.4405 131.95 25.4737C131.896 25.507 131.833 25.5245 131.769 25.5245L131.768 25.5253Z" fill="white"/>
<path d="M96.2594 74.0033C96.1913 74.0033 96.1246 73.9834 96.0677 73.9461C96.0107 73.9088 95.9658 73.8557 95.9386 73.7933C95.9113 73.7308 95.9029 73.6618 95.9143 73.5947C95.9257 73.5276 95.9564 73.4652 96.0027 73.4153C96.2446 73.1545 96.4794 72.8974 96.7072 72.644C96.7377 72.6089 96.7748 72.5802 96.8165 72.5596C96.8582 72.5391 96.9035 72.527 96.9499 72.5241C96.9963 72.5212 97.0428 72.5276 97.0867 72.5429C97.1306 72.5582 97.171 72.5821 97.2055 72.6131C97.2401 72.6442 97.2681 72.6818 97.288 72.7239C97.3079 72.7659 97.3191 72.8114 97.3212 72.8579C97.3233 72.9043 97.3161 72.9506 97.3 72.9943C97.284 73.0379 97.2594 73.0779 97.2278 73.1119C96.9976 73.368 96.7603 73.6277 96.516 73.8911C96.4833 73.9265 96.4436 73.9548 96.3994 73.9741C96.3553 73.9934 96.3076 74.0033 96.2594 74.0033Z" fill="white"/>
<path d="M81.6038 51.4758C81.5443 51.4758 81.4858 51.4606 81.4338 51.4316C81.3818 51.4027 81.338 51.3609 81.3066 51.3103C81.2752 51.2598 81.2573 51.202 81.2544 51.1426C81.2516 51.0831 81.2639 51.0239 81.2904 50.9706C81.5754 50.3941 81.7294 50.0407 81.7309 50.0372C81.7682 49.9525 81.8375 49.886 81.9237 49.8522C82.0098 49.8185 82.1059 49.8202 82.1908 49.8571C82.2756 49.894 82.3425 49.963 82.3766 50.049C82.4108 50.135 82.4095 50.231 82.373 50.3161C82.3665 50.3309 82.2114 50.6871 81.9177 51.2808C81.8888 51.3394 81.8441 51.3887 81.7886 51.4231C81.7331 51.4576 81.6691 51.4758 81.6038 51.4758Z" fill="white"/>
<path d="M64.6643 68.2774C64.5963 68.2773 64.5298 68.2575 64.4729 68.2204C64.416 68.1832 64.3712 68.1303 64.3439 68.068C64.3166 68.0058 64.308 67.9369 64.3191 67.8699C64.3303 67.8029 64.3607 67.7405 64.4067 67.6905C64.9058 67.1473 65.3803 66.6116 65.8172 66.0987C65.8468 66.063 65.8832 66.0336 65.9242 66.0122C65.9653 65.9907 66.0102 65.9776 66.0564 65.9736C66.1025 65.9697 66.149 65.9749 66.1931 65.989C66.2372 66.0031 66.2781 66.0259 66.3134 66.0559C66.3486 66.0859 66.3776 66.1227 66.3986 66.164C66.4195 66.2053 66.4321 66.2504 66.4355 66.2966C66.4389 66.3428 66.4331 66.3892 66.4184 66.4331C66.4038 66.4771 66.3805 66.5177 66.35 66.5526C65.9075 67.0722 65.4272 67.6145 64.922 68.1641C64.8893 68.1999 64.8495 68.2284 64.8051 68.2479C64.7607 68.2674 64.7128 68.2774 64.6643 68.2774ZM67.4313 65.0135C67.366 65.0135 67.3019 64.9952 67.2465 64.9607C67.191 64.9262 67.1464 64.8768 67.1175 64.8182C67.0886 64.7597 67.0767 64.6942 67.0831 64.6292C67.0895 64.5642 67.114 64.5023 67.1538 64.4505C67.6119 63.8535 68.025 63.2745 68.3816 62.7303C68.4068 62.6918 68.4393 62.6587 68.4773 62.6328C68.5153 62.6069 68.558 62.5888 68.603 62.5794C68.648 62.57 68.6944 62.5696 68.7395 62.5782C68.7847 62.5867 68.8277 62.6041 68.8662 62.6293C68.9047 62.6545 68.9378 62.687 68.9636 62.725C68.9895 62.7629 69.0077 62.8057 69.0171 62.8507C69.0264 62.8957 69.0269 62.9421 69.0183 62.9872C69.0098 63.0324 68.9924 63.0754 68.9672 63.1139C68.6011 63.6728 68.1779 64.2659 67.7092 64.8766C67.6765 64.9192 67.6344 64.9538 67.5862 64.9775C67.538 65.0012 67.485 65.0136 67.4313 65.0135ZM69.8507 63.1031C69.7617 63.1028 69.6762 63.0687 69.6115 63.0076C69.5468 62.9464 69.5078 62.863 69.5024 62.7741C69.4971 62.6853 69.5258 62.5978 69.5827 62.5293C69.6396 62.4609 69.7204 62.4167 69.8087 62.4058C70.4851 62.3186 71.1462 62.1388 71.7735 61.8715C71.8591 61.8356 71.9555 61.8352 72.0414 61.8704C72.1274 61.9055 72.1958 61.9734 72.2317 62.059C72.2676 62.1446 72.2681 62.241 72.2329 62.3269C72.1977 62.4128 72.1299 62.4813 72.0443 62.5172C71.3576 62.8091 70.6342 63.0054 69.8941 63.1006C69.8797 63.1023 69.8652 63.1031 69.8507 63.1031ZM67.7227 63.0314C67.7004 63.0314 67.6782 63.0293 67.6562 63.0251C66.9237 62.8801 66.2146 62.6349 65.549 62.2963C65.4667 62.2542 65.4045 62.1813 65.3758 62.0935C65.347 62.0057 65.3542 61.9102 65.3957 61.8276C65.4371 61.7451 65.5095 61.6823 65.5971 61.6529C65.6846 61.6235 65.7803 61.6299 65.8631 61.6708C66.4712 61.9804 67.1191 62.2048 67.7884 62.3377C67.8739 62.3542 67.9502 62.4019 68.0024 62.4715C68.0546 62.5412 68.0789 62.6278 68.0707 62.7144C68.0625 62.8011 68.0223 62.8815 67.958 62.9402C67.8937 62.9988 67.8098 63.0313 67.7227 63.0314ZM73.7798 61.5113C73.7051 61.5114 73.6323 61.4875 73.5721 61.4432C73.5118 61.3989 73.4674 61.3365 73.4452 61.2651C73.4231 61.1937 73.4244 61.117 73.4489 61.0464C73.4734 60.9758 73.5199 60.9149 73.5816 60.8726C74.1548 60.4759 74.6986 60.0384 75.2088 59.5633C75.2426 59.5321 75.2821 59.5079 75.3253 59.492C75.3684 59.4761 75.4142 59.4688 75.4602 59.4706C75.5061 59.4724 75.5512 59.4833 75.593 59.5025C75.6347 59.5218 75.6722 59.549 75.7034 59.5828C75.7346 59.6166 75.7589 59.6561 75.7748 59.6992C75.7907 59.7424 75.798 59.7882 75.7962 59.8341C75.7944 59.8801 75.7835 59.9252 75.7643 59.9669C75.745 60.0087 75.7177 60.0462 75.684 60.0774C75.1489 60.5753 74.5786 61.0338 73.9774 61.4494C73.9191 61.4897 73.85 61.5113 73.7791 61.5113H73.7798ZM69.7443 61.4204C69.6849 61.4204 69.6265 61.4052 69.5746 61.3764C69.5227 61.3475 69.479 61.3059 69.4476 61.2555C69.4162 61.2051 69.3981 61.1475 69.3951 61.0882C69.3921 61.0289 69.4042 60.9698 69.4303 60.9164C69.7419 60.3084 69.9733 59.6625 70.1186 58.9949C70.1362 58.9038 70.1894 58.8234 70.2663 58.7715C70.3432 58.7195 70.4376 58.7002 70.5288 58.7179C70.6199 58.7355 70.7003 58.7887 70.7523 58.8656C70.8042 58.9425 70.8235 59.0369 70.8058 59.1281C70.6489 59.8563 70.3978 60.5609 70.0589 61.2243C70.0301 61.2833 69.9852 61.3329 69.9294 61.3676C69.8737 61.4023 69.8093 61.4206 69.7436 61.4204H69.7443ZM63.9475 61.129C63.8549 61.129 63.766 61.0923 63.7004 61.0269C63.1019 60.4306 62.7985 59.7949 62.7985 59.1355C62.7986 59.0306 62.8064 58.9259 62.8219 58.8222C62.8357 58.7304 62.8853 58.6478 62.96 58.5926C63.0346 58.5374 63.1281 58.5141 63.2199 58.5279C63.3117 58.5417 63.3943 58.5913 63.4495 58.666C63.5047 58.7406 63.528 58.8341 63.5142 58.9259C63.5038 58.9954 63.4986 59.0656 63.4985 59.1359C63.4985 59.6018 63.7327 60.0713 64.1946 60.5314C64.2437 60.5803 64.2771 60.6427 64.2907 60.7106C64.3044 60.7786 64.2975 60.849 64.271 60.9131C64.2446 60.9771 64.1997 61.0318 64.1421 61.0703C64.0845 61.1088 64.0168 61.1294 63.9475 61.1294V61.129ZM76.9354 58.6323C76.8682 58.6323 76.8024 58.6129 76.746 58.5765C76.6895 58.54 76.6447 58.4881 76.6169 58.4269C76.5892 58.3657 76.5796 58.2977 76.5894 58.2312C76.5992 58.1648 76.628 58.1025 76.6722 58.0519C77.1153 57.5455 77.5605 56.9913 77.9955 56.4045C78.0511 56.3307 78.1335 56.2817 78.225 56.2685C78.3164 56.2552 78.4094 56.2786 78.4837 56.3336C78.5579 56.3887 78.6074 56.4708 78.6213 56.5622C78.6352 56.6535 78.6124 56.7467 78.5579 56.8213C78.1117 57.4233 77.6545 57.9924 77.1989 58.5129C77.166 58.5506 77.1254 58.5808 77.0798 58.6014C77.0343 58.622 76.9848 58.6325 76.9347 58.6323H76.9354ZM64.3515 57.5053C64.2781 57.5053 64.2065 57.4822 64.1469 57.4393C64.0873 57.3963 64.0427 57.3357 64.0195 57.266C63.9963 57.1963 63.9956 57.1211 64.0175 57.051C64.0394 56.9809 64.0828 56.9194 64.1415 56.8753C64.7531 56.4271 65.4399 56.092 66.1696 55.8858C66.2579 55.8624 66.3519 55.8745 66.4315 55.9194C66.511 55.9644 66.5699 56.0387 66.5954 56.1264C66.6209 56.2142 66.6111 56.3085 66.568 56.3891C66.5249 56.4697 66.452 56.5302 66.3649 56.5578C65.7171 56.7418 65.1069 57.0386 64.5622 57.4346C64.5013 57.4805 64.4271 57.5051 64.3508 57.5048L64.3515 57.5053ZM70.2035 57.3415C70.1451 57.3415 70.0875 57.3269 70.0362 57.299C69.9848 57.271 69.9413 57.2306 69.9095 57.1815C69.5356 56.6033 68.8517 56.4125 68.3439 56.3543C68.2979 56.3495 68.2533 56.3356 68.2126 56.3134C68.172 56.2913 68.1362 56.2613 68.1072 56.2252C68.0782 56.1891 68.0567 56.1476 68.0439 56.1032C68.0311 56.0587 68.0272 56.0121 68.0325 55.9662C68.0377 55.9202 68.0521 55.8757 68.0747 55.8353C68.0973 55.7949 68.1276 55.7594 68.164 55.7308C68.2004 55.7023 68.2421 55.6812 68.2867 55.6688C68.3313 55.6565 68.3779 55.6531 68.4239 55.6589C69.3669 55.7671 70.0838 56.1629 70.4973 56.8014C70.5315 56.8543 70.5508 56.9154 70.5532 56.9783C70.5555 57.0412 70.5409 57.1036 70.5108 57.1589C70.4807 57.2142 70.4363 57.2603 70.3821 57.2925C70.328 57.3246 70.2662 57.3416 70.2033 57.3415H70.2035ZM79.4934 55.1995C79.4305 55.1995 79.3688 55.1825 79.3148 55.1504C79.2607 55.1183 79.2164 55.0722 79.1863 55.017C79.1562 54.9618 79.1415 54.8995 79.1438 54.8367C79.1462 54.7739 79.1653 54.7128 79.1994 54.66C79.5749 54.0772 79.9441 53.4659 80.297 52.8432C80.3195 52.8029 80.3497 52.7674 80.386 52.7388C80.4222 52.7102 80.4638 52.689 80.5082 52.6766C80.5527 52.6641 80.5992 52.6606 80.645 52.6661C80.6908 52.6717 80.7351 52.6863 80.7753 52.7091C80.8154 52.7318 80.8507 52.7623 80.8791 52.7988C80.9074 52.8352 80.9282 52.8769 80.9404 52.9215C80.9525 52.966 80.9558 53.0125 80.9499 53.0583C80.9439 53.1041 80.929 53.1483 80.906 53.1883C80.5466 53.8225 80.1704 54.4451 79.7879 55.039C79.7562 55.0885 79.7125 55.1292 79.6608 55.1574C79.6092 55.1856 79.5512 55.2002 79.4924 55.2001L79.4934 55.1995Z" fill="white"/>
<path d="M62.4443 70.5895C62.3752 70.5895 62.3076 70.569 62.25 70.5307C62.1925 70.4923 62.1476 70.4378 62.1211 70.3739C62.0945 70.3101 62.0875 70.2398 62.1008 70.1719C62.1142 70.1041 62.1473 70.0417 62.1961 69.9927C62.4481 69.7407 62.6929 69.4926 62.9305 69.2483C62.9953 69.1818 63.0839 69.1438 63.1767 69.1426C63.2695 69.1414 63.359 69.1771 63.4255 69.2419C63.492 69.3067 63.53 69.3953 63.5312 69.4881C63.5324 69.5809 63.4967 69.6704 63.4319 69.7369C63.192 69.983 62.9452 70.2332 62.6914 70.4873C62.659 70.5197 62.6204 70.5455 62.578 70.563C62.5356 70.5805 62.4902 70.5895 62.4443 70.5895Z" fill="white"/>
</svg>
