<?xml version="1.0" encoding="utf-8"?>
<!-- This file is generated by pnpm icogen -->
<svg xmlns="http://www.w3.org/2000/svg" xmlns:xlink="http://www.w3.org/1999/xlink" width="24" height="24">
<defs>
<!-- add-cell -->
<symbol id="add-cell" fill="none" viewBox="0 0 24 24"><path stroke="currentcolor" stroke-linecap="round" stroke-linejoin="round" stroke-width="2" d="M17.8 10c1.12 0 1.68 0 2.1-.22a2 2 0 0 0 .88-.87c.22-.43.22-.99.22-2.11v-.6c0-1.12 0-1.68-.22-2.1a2 2 0 0 0-.87-.88C19.48 3 18.92 3 17.8 3H6.2c-1.12 0-1.68 0-2.1.22a2 2 0 0 0-.88.87C3 4.52 3 5.08 3 6.2v.6c0 1.12 0 1.68.22 2.1q.3.58.87.88c.43.22.99.22 2.11.22zM17.8 21c1.12 0 1.68 0 2.1-.22a2 2 0 0 0 .88-.87c.22-.43.22-.99.22-2.11v-.6c0-1.12 0-1.68-.22-2.1a2 2 0 0 0-.87-.88c-.43-.22-.99-.22-2.11-.22H6.2c-1.12 0-1.68 0-2.1.22a2 2 0 0 0-.88.87C3 15.52 3 16.08 3 17.2v.6c0 1.12 0 1.68.22 2.1q.3.58.87.88c.43.22.99.22 2.11.22z"/></symbol>
<!-- add-column -->
<symbol id="add-column" fill="none" viewBox="0 0 24 24"><path stroke="currentcolor" stroke-linecap="round" stroke-linejoin="round" stroke-width="2" d="M12 12h9m-9-9v18M7.8 3h8.4c1.68 0 2.52 0 3.16.33a3 3 0 0 1 1.31 1.3c.33.65.33 1.49.33 3.17v8.4c0 1.68 0 2.52-.33 3.16a3 3 0 0 1-1.3 1.31c-.65.33-1.49.33-3.17.33H7.8c-1.68 0-2.52 0-3.16-.33a3 3 0 0 1-1.31-1.3C3 18.71 3 17.87 3 16.2V7.8c0-1.68 0-2.52.33-3.16a3 3 0 0 1 1.3-1.31C5.29 3 6.13 3 7.8 3"/></symbol>
<!-- add-image -->
<symbol id="add-image" fill="none" viewBox="0 0 24 24"><path stroke="currentcolor" stroke-linecap="round" stroke-linejoin="round" stroke-width="2" d="M12.5 3H7.8c-1.68 0-2.52 0-3.16.33a3 3 0 0 0-1.31 1.3C3 5.29 3 6.13 3 7.8v8.4c0 1.68 0 2.52.33 3.16a3 3 0 0 0 1.3 1.31c.65.33 1.49.33 3.17.33H17c.93 0 1.4 0 1.78-.1a3 3 0 0 0 2.12-2.12c.1-.39.1-.85.1-1.78m-2-9V2m-3 3h6M10.5 8.5a2 2 0 1 1-4 0 2 2 0 0 1 4 0m4.49 3.42L6.53 19.6c-.47.43-.71.65-.73.83a.5.5 0 0 0 .16.44c.14.12.47.12 1.1.12h9.4c1.44 0 2.15 0 2.72-.24a3 3 0 0 0 1.58-1.58c.24-.57.24-1.28.24-2.72 0-.49 0-.73-.05-.96a2 2 0 0 0-.38-.77 4 4 0 0 0-.7-.64l-2.8-2.24c-.38-.3-.57-.45-.78-.5a1 1 0 0 0-.56.01c-.2.07-.38.23-.74.56"/></symbol>
<!-- add-link -->
<symbol id="add-link" fill="none" viewBox="0 0 24 24"><path stroke="currentcolor" stroke-linecap="round" stroke-linejoin="round" stroke-width="2" d="m12.7 18.36-1.4 1.42a5 5 0 1 1-7.08-7.07l1.42-1.42m12.72 1.42 1.42-1.42a5 5 0 0 0-7.07-7.07l-1.42 1.42M8.5 15.5l7-7"/></symbol>
<!-- arrow -->
<symbol id="arrow" fill="none" viewBox="0 0 24 24"><path stroke="currentcolor" stroke-linecap="round" stroke-linejoin="round" stroke-width="2" d="m21 12-7-7v4H3.8c-.28 0-.42 0-.53.05a.5.5 0 0 0-.22.22C3 9.38 3 9.52 3 9.8v4.4c0 .28 0 .42.05.53q.08.15.22.22c.11.05.25.05.53.05H14v4z"/></symbol>
<!-- bar-chart -->
<symbol id="bar-chart" fill="none" viewBox="0 0 24 24"><path stroke="currentcolor" stroke-linecap="round" stroke-linejoin="round" stroke-width="2" d="M9 12H4.6c-.56 0-.84 0-1.05.1a1 1 0 0 0-.44.45C3 12.76 3 13.04 3 13.6v5.8c0 .56 0 .84.1 1.05a1 1 0 0 0 .45.44c.21.11.49.11 1.05.11H9m0 0h6m-6 0V8.6c0-.56 0-.84.1-1.05a1 1 0 0 1 .45-.44C9.76 7 10.04 7 10.6 7h2.8c.56 0 .84 0 1.05.1a1 1 0 0 1 .44.45c.11.21.11.49.11 1.05V21m0 0h4.4c.56 0 .84 0 1.05-.1a1 1 0 0 0 .44-.45c.11-.21.11-.49.11-1.05V4.6c0-.56 0-.84-.1-1.05a1 1 0 0 0-.45-.44C20.24 3 19.96 3 19.4 3h-2.8c-.56 0-.84 0-1.05.1a1 1 0 0 0-.44.45C15 3.76 15 4.04 15 4.6V8"/></symbol>
<!-- bold -->
<symbol id="bold" fill="none" viewBox="0 0 24 24"><path stroke="currentcolor" stroke-linecap="round" stroke-linejoin="round" stroke-width="2" d="M6 4v16M9.5 4h6a4 4 0 0 1 0 8h-6 7a4 4 0 0 1 0 8h-7m0-16v16m0-16H4m5.5 16H4"/></symbol>
<!-- bookmark -->
<symbol id="bookmark" fill="none" viewBox="0 0 24 24"><path stroke="currentcolor" stroke-linecap="round" stroke-linejoin="round" stroke-width="2" d="M5 7.8c0-1.68 0-2.52.33-3.16a3 3 0 0 1 1.3-1.31C7.29 3 8.13 3 9.8 3h4.4c1.68 0 2.52 0 3.16.33a3 3 0 0 1 1.31 1.3c.33.65.33 1.49.33 3.17V21l-7-4-7 4z"/></symbol>
<!-- bullet-list -->
<symbol id="bullet-list" fill="none" viewBox="0 0 24 24"><path stroke="currentcolor" stroke-linecap="round" stroke-linejoin="round" stroke-width="2" d="M21 5H10m11 14H10m11-7H10M6 5a1.5 1.5 0 1 1-3 0 1.5 1.5 0 0 1 3 0m0 14a1.5 1.5 0 1 1-3 0 1.5 1.5 0 0 1 3 0m0-7a1.5 1.5 0 1 1-3 0 1.5 1.5 0 0 1 3 0"/></symbol>
<!-- center-alighnment -->
<symbol id="center-alighnment" fill="none" viewBox="0 0 24 24"><path stroke="currentcolor" stroke-linecap="round" stroke-linejoin="round" stroke-width="2" d="M18 10H6m15-4H3m18 8H3m15 4H6"/></symbol>
<!-- center-justification -->
<symbol id="center-justification" fill="none" viewBox="0 0 24 24"><path stroke="currentcolor" stroke-linecap="round" stroke-linejoin="round" stroke-width="2" d="M21 10H3m18 8H3M21 6H3m18 8H3"/></symbol>
<!-- circle -->
<symbol id="circle" fill="none" viewBox="0 0 24 24"><path stroke="currentcolor" stroke-linecap="round" stroke-linejoin="round" stroke-width="2" d="M12 22a10 10 0 1 0 0-20 10 10 0 0 0 0 20"/></symbol>
<!-- citation -->
<symbol id="citation" fill="none" viewBox="0 0 24 24"><path stroke="currentcolor" stroke-linecap="round" stroke-linejoin="round" stroke-width="2" d="m12 21-.1-.15c-.7-1.04-1.04-1.56-1.5-1.94a4 4 0 0 0-1.38-.74C8.45 18 7.82 18 6.57 18H5.2c-1.12 0-1.68 0-2.1-.22a2 2 0 0 1-.88-.87C2 16.48 2 15.92 2 14.8V6.2c0-1.12 0-1.68.22-2.1a2 2 0 0 1 .87-.88C3.52 3 4.08 3 5.2 3h.4c2.24 0 3.36 0 4.22.44a4 4 0 0 1 1.74 1.74c.44.86.44 1.98.44 4.22M12 21V9.4M12 21l.1-.15c.7-1.04 1.04-1.56 1.5-1.94a4 4 0 0 1 1.38-.74c.57-.17 1.2-.17 2.45-.17h1.37c1.12 0 1.68 0 2.1-.22a2 2 0 0 0 .88-.87c.22-.43.22-.99.22-2.11V6.2c0-1.12 0-1.68-.22-2.1a2 2 0 0 0-.87-.88C20.48 3 19.92 3 18.8 3h-.4c-2.24 0-3.36 0-4.22.44a4 4 0 0 0-1.74 1.74C12 6.04 12 7.16 12 9.4"/></symbol>
<!-- column-grid-center -->
<symbol id="column-grid-center" fill="none" viewBox="0 0 24 24"><path stroke="currentcolor" stroke-linecap="round" stroke-linejoin="round" stroke-width="2" d="M3 3zM3 12zM3 21zM3 16.5zM3 7.5zM7.5 3zm-.01 9zm-.01 9zM16.5 3h.01m-.01 9h.01m-.01 9h.01M21 3h.01M21 12h.01M21 21h.01M21 16.5h.01m-.01-9h.01M12 21V3"/></symbol>
<!-- column-grid-left -->
<symbol id="column-grid-left" fill="none" viewBox="0 0 24 24"><path stroke="currentcolor" stroke-linecap="round" stroke-linejoin="round" stroke-width="2" d="M7.5 3zm-.01 9zm-.01 9zM16.5 3h.01m-.01 9h.01m-.01 9h.01M12 3zM12 12zM12 21zM12 16.5zm-.01-9zM21 3h.01M21 12h.01M21 21h.01M21 16.5h.01m-.01-9h.01M3 21V3"/></symbol>
<!-- column-grid-right -->
<symbol id="column-grid-right" fill="none" viewBox="0 0 24 24"><path stroke="currentcolor" stroke-linecap="round" stroke-linejoin="round" stroke-width="2" d="M7.5 3zm-.01 9zm-.01 9zM16.5 3h.01m-.01 9h.01m-.01 9h.01M12 3zM12 12zM12 21zM12 16.5zm-.01-9zM3 3zM3 12zM3 21zM3 16.5zM3 7.5zM21 21V3"/></symbol>
<!-- convert -->
<symbol id="convert" fill="none" viewBox="0 0 24 24"><path stroke="currentcolor" stroke-linecap="round" stroke-linejoin="round" stroke-width="2" d="M2 14s.12.85 3.64 4.36A9 9 0 0 0 20.78 14M2 14v6m0-6h6m14-4s-.12-.85-3.64-4.36A9 9 0 0 0 3.22 10M22 10V4m0 6h-6"/></symbol>
<!-- copy -->
<symbol id="copy" fill="none" viewBox="0 0 24 24"><path stroke="currentcolor" stroke-linecap="round" stroke-linejoin="round" stroke-width="2" d="M5 15c-.93 0-1.4 0-1.77-.15a2 2 0 0 1-1.08-1.08C2 13.4 2 12.93 2 12V5.2c0-1.12 0-1.68.22-2.1a2 2 0 0 1 .87-.88C3.52 2 4.08 2 5.2 2H12c.93 0 1.4 0 1.77.15a2 2 0 0 1 1.08 1.08C15 3.6 15 4.07 15 5m-2.8 17h6.6c1.12 0 1.68 0 2.1-.22a2 2 0 0 0 .88-.87c.22-.43.22-.99.22-2.11v-6.6c0-1.12 0-1.68-.22-2.1a2 2 0 0 0-.87-.88C20.48 9 19.92 9 18.8 9h-6.6c-1.12 0-1.68 0-2.1.22a2 2 0 0 0-.88.87C9 10.52 9 11.08 9 12.2v6.6c0 1.12 0 1.68.22 2.1q.3.58.87.88c.43.22.99.22 2.11.22"/></symbol>
<!-- cut -->
<symbol id="cut" fill="none" viewBox="0 0 24 24"><path stroke="currentcolor" stroke-linecap="round" stroke-linejoin="round" stroke-width="2" d="M4.5 8.6 21 17m0-10L4.5 15.4M6 3a3 3 0 1 1 0 6 3 3 0 0 1 0-6m0 12a3 3 0 1 1 0 6 3 3 0 0 1 0-6"/></symbol>
<!-- date -->
<symbol id="date" fill="none" viewBox="0 0 24 24"><path stroke="currentcolor" stroke-linecap="round" stroke-linejoin="round" stroke-width="2" d="M21 10H3m13-8v4M8 2v4m2.5 8 1.5-1v5m-1.25 0h2.5M7.8 22h8.4c1.68 0 2.52 0 3.16-.33a3 3 0 0 0 1.31-1.3c.33-.65.33-1.49.33-3.17V8.8c0-1.68 0-2.52-.33-3.16a3 3 0 0 0-1.3-1.31C18.71 4 17.87 4 16.2 4H7.8c-1.68 0-2.52 0-3.16.33a3 3 0 0 0-1.31 1.3C3 6.29 3 7.13 3 8.8v8.4c0 1.68 0 2.52.33 3.16a3 3 0 0 0 1.3 1.31c.65.33 1.49.33 3.17.33"/></symbol>
<!-- download -->
<symbol id="download" fill="none" viewBox="0 0 24 24"><path stroke="currentcolor" stroke-linecap="round" stroke-linejoin="round" stroke-width="2" d="M14 2.27V6.4c0 .56 0 .84.1 1.05a1 1 0 0 0 .45.44c.21.11.49.11 1.05.11h4.13M9 15l3 3m0 0 3-3m-3 3v-6m2-10H8.8c-1.68 0-2.52 0-3.16.33a3 3 0 0 0-1.31 1.3C4 4.29 4 5.13 4 6.8v10.4c0 1.68 0 2.52.33 3.16a3 3 0 0 0 1.3 1.31c.65.33 1.49.33 3.17.33h6.4c1.68 0 2.52 0 3.16-.33a3 3 0 0 0 1.31-1.3c.33-.65.33-1.49.33-3.17V8z"/></symbol>
<!-- emoji -->
<symbol id="emoji" fill="none" viewBox="0 0 24 24"><path stroke="currentcolor" stroke-linecap="round" stroke-linejoin="round" stroke-width="2" d="M8 14s1.5 2 4 2 4-2 4-2m-1-5zM9 9zM22 12a10 10 0 1 1-20 0 10 10 0 0 1 20 0m-6.5-3a.5.5 0 1 1-1 0 .5.5 0 0 1 1 0m-6 0a.5.5 0 1 1-1 0 .5.5 0 0 1 1 0"/></symbol>
<!-- equations -->
<symbol id="equations" fill="none" viewBox="0 0 24 24"><path stroke="currentcolor" stroke-linecap="round" stroke-linejoin="round" stroke-width="2" d="M19 19H5l7-7-7-7h14"/></symbol>
<!-- frame -->
<symbol id="frame" fill="none" viewBox="0 0 24 24"><path stroke="currentcolor" stroke-linecap="round" stroke-linejoin="round" stroke-width="2" d="M3 9h18M3 15h18M12 3v18M7.8 3h8.4c1.68 0 2.52 0 3.16.33a3 3 0 0 1 1.31 1.3c.33.65.33 1.49.33 3.17v8.4c0 1.68 0 2.52-.33 3.16a3 3 0 0 1-1.3 1.31c-.65.33-1.49.33-3.17.33H7.8c-1.68 0-2.52 0-3.16-.33a3 3 0 0 1-1.31-1.3C3 18.71 3 17.87 3 16.2V7.8c0-1.68 0-2.52.33-3.16a3 3 0 0 1 1.3-1.31C5.29 3 6.13 3 7.8 3"/></symbol>
<!-- full-screen -->
<symbol id="full-screen" fill="none" viewBox="0 0 24 24"><path stroke="currentcolor" stroke-linecap="round" stroke-linejoin="round" stroke-width="2" d="M16 21h.2c1.68 0 2.52 0 3.16-.33a3 3 0 0 0 1.31-1.3c.33-.65.33-1.49.33-3.17V7.8c0-1.68 0-2.52-.33-3.16a3 3 0 0 0-1.3-1.31C18.71 3 17.87 3 16.2 3H7.8c-1.68 0-2.52 0-3.16.33a3 3 0 0 0-1.31 1.3C3 5.29 3 6.13 3 7.8V8m8.5 4.5L17 7m0 0h-5m5 0v5M6.2 21h2.6c1.12 0 1.68 0 2.1-.22a2 2 0 0 0 .88-.87c.22-.43.22-.99.22-2.11v-2.6c0-1.12 0-1.68-.22-2.1a2 2 0 0 0-.87-.88C10.48 12 9.92 12 8.8 12H6.2c-1.12 0-1.68 0-2.1.22a2 2 0 0 0-.88.87C3 13.52 3 14.08 3 15.2v2.6c0 1.12 0 1.68.22 2.1q.3.58.87.88c.43.22.99.22 2.11.22"/></symbol>
<!-- heading -->
<symbol id="heading" fill="none" viewBox="0 0 24 24"><path stroke="currentcolor" stroke-linecap="round" stroke-linejoin="round" stroke-width="2" d="M4 7c0-.93 0-1.4.15-1.77a2 2 0 0 1 1.08-1.08C5.6 4 6.07 4 7 4h10c.93 0 1.4 0 1.77.15a2 2 0 0 1 1.08 1.08C20 5.6 20 6.07 20 7M8 20h8M10.25 4v16m3.5-16v16"/></symbol>
<!-- image-indent-left -->
<symbol id="image-indent-left" fill="none" viewBox="0 0 24 24"><path stroke="currentcolor" stroke-linecap="round" stroke-linejoin="round" stroke-width="2" d="M21 9.25h-6M21 4H3m18 10.75h-6M21 20H3m1.6-4h4.8c.56 0 .84 0 1.05-.1a1 1 0 0 0 .44-.45c.11-.21.11-.49.11-1.05V9.6c0-.56 0-.84-.1-1.05a1 1 0 0 0-.45-.44C10.24 8 9.96 8 9.4 8H4.6c-.56 0-.84 0-1.05.1a1 1 0 0 0-.44.45C3 8.76 3 9.04 3 9.6v4.8c0 .56 0 .84.1 1.05a1 1 0 0 0 .45.44c.21.11.49.11 1.05.11"/></symbol>
<!-- image-indent-right -->
<symbol id="image-indent-right" fill="none" viewBox="0 0 24 24"><path stroke="currentcolor" stroke-linecap="round" stroke-linejoin="round" stroke-width="2" d="M21 4H3m18 16H3M9 9.25H3m6 5.5H3M14.6 16h4.8c.56 0 .84 0 1.05-.1a1 1 0 0 0 .44-.45c.11-.21.11-.49.11-1.05V9.6c0-.56 0-.84-.1-1.05a1 1 0 0 0-.45-.44C20.24 8 19.96 8 19.4 8h-4.8c-.56 0-.84 0-1.05.1a1 1 0 0 0-.44.45C13 8.76 13 9.04 13 9.6v4.8c0 .56 0 .84.1 1.05a1 1 0 0 0 .45.44c.21.11.49.11 1.05.11"/></symbol>
<!-- italics -->
<symbol id="italics" fill="none" viewBox="0 0 24 24"><path stroke="currentcolor" stroke-linecap="round" stroke-linejoin="round" stroke-width="2" d="m13.25 4-6 16m9.5-16-6 16M19.5 4h-10m5 16h-10"/></symbol>
<!-- left-alignment -->
<symbol id="left-alignment" fill="none" viewBox="0 0 24 24"><path stroke="currentcolor" stroke-linecap="round" stroke-linejoin="round" stroke-width="2" d="M16 10H3m17-4H3m17 8H3m13 4H3"/></symbol>
<!-- left-indent -->
<symbol id="left-indent" fill="none" viewBox="0 0 24 24"><path stroke="currentcolor" stroke-linecap="round" stroke-linejoin="round" stroke-width="2" d="M21 9.25h-9M21 4h-9m9 10.75H3M21 20H3M4.28 2.96l3.87 2.9c.29.22.43.33.48.46a.5.5 0 0 1 0 .36c-.05.13-.2.24-.48.46l-3.87 2.9c-.41.3-.62.46-.79.46a.5.5 0 0 1-.38-.2C3 10.18 3 9.92 3 9.4V3.6c0-.52 0-.77.1-.9a.5.5 0 0 1 .39-.2c.17 0 .38.15.79.46"/></symbol>
<!-- letter-spacing -->
<symbol id="letter-spacing" fill="none" viewBox="0 0 24 24"><path stroke="currentcolor" stroke-linecap="round" stroke-linejoin="round" stroke-width="2" d="M9 13h6m-8 4 4.27-9.4c.23-.5.35-.76.5-.84a.5.5 0 0 1 .45 0c.16.08.28.33.5.84L17 17m4-14v18M3 3v18"/></symbol>
<!-- line-chart -->
<symbol id="line-chart" fill="none" viewBox="0 0 24 24"><path stroke="currentcolor" stroke-linecap="round" stroke-linejoin="round" stroke-width="2" d="M21 21H4.6c-.56 0-.84 0-1.05-.1a1 1 0 0 1-.44-.45C3 20.24 3 19.96 3 19.4V3m18 4-5.43 5.43c-.2.2-.3.3-.42.34a.5.5 0 0 1-.3 0c-.12-.04-.22-.14-.42-.34l-1.86-1.86c-.2-.2-.3-.3-.42-.34a.5.5 0 0 0-.3 0c-.12.04-.22.14-.42.34L7 15m14-8h-4m4 0v4"/></symbol>
<!-- line-height -->
<symbol id="line-height" fill="none" viewBox="0 0 24 24"><path stroke="currentcolor" stroke-linecap="round" stroke-linejoin="round" stroke-width="2" d="M9 13h6m-8 4 4.27-9.4c.23-.5.35-.76.5-.84a.5.5 0 0 1 .45 0c.16.08.28.33.5.84L17 17m4 4H3M21 3H3"/></symbol>
<!-- line -->
<symbol id="line" fill="none" viewBox="0 0 24 24"><path stroke="currentcolor" stroke-linecap="round" stroke-linejoin="round" stroke-width="2" d="M3 12h18"/></symbol>
<!-- mark -->
<symbol id="mark" fill="none" viewBox="0 0 24 24"><path stroke="currentcolor" stroke-linecap="round" stroke-linejoin="round" stroke-width="2" d="M18 10V3.6c0-.56 0-.84-.1-1.05a1 1 0 0 0-.45-.44C17.24 2 16.96 2 16.4 2H7.6c-.56 0-.84 0-1.05.1a1 1 0 0 0-.44.45C6 2.76 6 3.04 6 3.6V10m12 0H6m12 0v.2c0 1.68 0 2.52-.33 3.16a3 3 0 0 1-1.3 1.31c-.65.33-1.49.33-3.17.33h-2.4c-1.68 0-2.52 0-3.16-.33a3 3 0 0 1-1.31-1.3C6 12.71 6 11.87 6 10.2V10m8.5 5v4.5a2.5 2.5 0 0 1-5 0V15"/></symbol>
<!-- media -->
<symbol id="media" fill="none" viewBox="0 0 24 24"><path stroke="currentcolor" stroke-linecap="round" stroke-linejoin="round" stroke-width="2" d="M2 12h20M2 7h5m10 0h5M2 17h5m10 0h5M7 22V2m10 20V2M6.8 22h10.4c1.68 0 2.52 0 3.16-.33a3 3 0 0 0 1.31-1.3c.33-.65.33-1.49.33-3.17V6.8c0-1.68 0-2.52-.33-3.16a3 3 0 0 0-1.3-1.31C19.71 2 18.87 2 17.2 2H6.8c-1.68 0-2.52 0-3.16.33a3 3 0 0 0-1.31 1.3C2 4.29 2 5.13 2 6.8v10.4c0 1.68 0 2.52.33 3.16a3 3 0 0 0 1.3 1.31c.65.33 1.49.33 3.17.33"/></symbol>
<!-- menu -->
<symbol id="menu" fill="none" viewBox="0 0 24 24" stroke="currentcolor" stroke-linecap="round" stroke-linejoin="round" stroke-width="2"><line x1="4" x2="20" y1="12" y2="12"/><line x1="4" x2="20" y1="6" y2="6"/><line x1="4" x2="20" y1="18" y2="18"/></symbol>
<!-- new-file -->
<symbol id="new-file" fill="none" viewBox="0 0 24 24"><path stroke="currentcolor" stroke-linecap="round" stroke-linejoin="round" stroke-width="2" d="M20 10.5V6.8c0-1.68 0-2.52-.33-3.16a3 3 0 0 0-1.3-1.31C17.71 2 16.87 2 15.2 2H8.8c-1.68 0-2.52 0-3.16.33a3 3 0 0 0-1.31 1.3C4 4.29 4 5.13 4 6.8v10.4c0 1.68 0 2.52.33 3.16a3 3 0 0 0 1.3 1.31c.65.33 1.49.33 3.17.33H12m2-11H8m2 4H8m8-8H8m10 14v-6m-3 3h6"/></symbol>
<!-- new-slide -->
<symbol id="new-slide" fill="none" viewBox="0 0 24 24"><path stroke="currentcolor" stroke-linecap="round" stroke-linejoin="round" stroke-width="2" d="M19 21v-6m-3 3h6m0-8H2m20 2V8.2c0-1.12 0-1.68-.22-2.1a2 2 0 0 0-.87-.88C20.48 5 19.92 5 18.8 5H5.2c-1.12 0-1.68 0-2.1.22a2 2 0 0 0-.88.87C2 6.52 2 7.08 2 8.2v7.6c0 1.12 0 1.68.22 2.1q.3.58.87.88c.43.22.99.22 2.11.22H12"/></symbol>
<!-- no-grid -->
<symbol id="no-grid" fill="none" viewBox="0 0 24 24"><path stroke="currentcolor" stroke-linecap="round" stroke-linejoin="round" stroke-width="2" d="M3 3zM3 12zM3 21zM3 16.5zM3 7.5zM7.5 3zm-.01 9zm-.01 9zM16.5 3h.01m-.01 9h.01m-.01 9h.01M12 3zM12 12zM12 21zM12 16.5zm-.01-9zM21 3h.01M21 12h.01M21 21h.01M21 16.5h.01m-.01-9h.01"/></symbol>
<!-- number-list -->
<symbol id="number-list" fill="none" viewBox="0 0 24 24"><path fill="#D9D9D9" d="M21 12H9Zm0-6H9Zm0 12H9ZM4.93 5.2V7h-.38V5.56h-.01l-.41.26v-.34l.44-.28zM4.81 19.02a1 1 0 0 1-.35-.06 1 1 0 0 1-.24-.2.5.5 0 0 1-.1-.27h.4q-.01.06.04.12.04.04.1.07l.15.03q.09 0 .16-.03l.1-.09.04-.12q0-.08-.04-.13a.3.3 0 0 0-.12-.09l-.17-.03H4.6v-.28h.17q.08 0 .15-.03l.1-.08a.2.2 0 0 0 .04-.13.2.2 0 0 0-.12-.2l-.13-.03q-.08 0-.15.03l-.1.08a.2.2 0 0 0-.04.12h-.37q0-.16.1-.27a1 1 0 0 1 .23-.19q.14-.07.33-.07.18 0 .32.07t.22.18.08.26q0 .16-.1.25a.4.4 0 0 1-.24.13v.02q.2.02.3.13t.1.28-.08.28a1 1 0 0 1-.25.19 1 1 0 0 1-.36.06"/><path stroke="currentcolor" stroke-linecap="round" stroke-linejoin="round" stroke-width="2" d="M21 12H9m12-6H9m12 12H9M4.93 5.2V7h-.38V5.56h-.01l-.41.26v-.34l.44-.28zM4.15 13v-.27l.64-.6.14-.14.08-.13.03-.13q0-.08-.04-.13a.2.2 0 0 0-.1-.1l-.14-.03-.14.04a.2.2 0 0 0-.1.1l-.03.14h-.36q0-.18.08-.3a.5.5 0 0 1 .22-.2q.15-.08.34-.08t.33.07q.14.06.23.19.08.12.08.28 0 .1-.04.2a1 1 0 0 1-.14.22q-.1.12-.3.29l-.26.26v0h.76V13zm.66 6.02a1 1 0 0 1-.35-.06 1 1 0 0 1-.24-.2.5.5 0 0 1-.1-.27h.4q-.01.06.04.12.04.04.1.07l.15.03q.09 0 .16-.03l.1-.09.04-.12q0-.08-.04-.13a.3.3 0 0 0-.12-.09l-.17-.03H4.6v-.28h.17q.08 0 .15-.03l.1-.08a.2.2 0 0 0 .04-.13.2.2 0 0 0-.12-.2l-.13-.03q-.08 0-.15.03l-.1.08a.2.2 0 0 0-.04.12h-.37q0-.16.1-.27a1 1 0 0 1 .23-.19q.14-.07.33-.07.18 0 .32.07t.22.18.08.26q0 .16-.1.25a.4.4 0 0 1-.24.13v.02q.2.02.3.13t.1.28-.08.28a1 1 0 0 1-.25.19 1 1 0 0 1-.36.06"/></symbol>
<!-- open -->
<symbol id="open" fill="none" viewBox="0 0 24 24"><path stroke="currentcolor" stroke-linecap="round" stroke-linejoin="round" stroke-width="2" d="m13 7-1.12-2.23c-.32-.64-.48-.96-.72-1.2a2 2 0 0 0-.74-.46C10.1 3 9.74 3 9.02 3H5.2c-1.12 0-1.68 0-2.1.22a2 2 0 0 0-.88.87C2 4.52 2 5.08 2 6.2V7m0 0h15.2c1.68 0 2.52 0 3.16.33a3 3 0 0 1 1.31 1.3c.33.65.33 1.49.33 3.17v4.4c0 1.68 0 2.52-.33 3.16a3 3 0 0 1-1.3 1.31c-.65.33-1.49.33-3.17.33H6.8c-1.68 0-2.52 0-3.16-.33a3 3 0 0 1-1.31-1.3C2 18.71 2 17.87 2 16.2zm10 10v-6m-3 3h6"/></symbol>
<!-- otline-grid -->
<symbol id="otline-grid" fill="none" viewBox="0 0 24 24"><path stroke="currentcolor" stroke-linecap="round" stroke-linejoin="round" stroke-width="2" d="M7.5 12zm8.99 0h.01M12 12zM12 16.5zm-.01-9zM3 7.8v8.4c0 1.68 0 2.52.33 3.16a3 3 0 0 0 1.3 1.31c.65.33 1.49.33 3.17.33h8.4c1.68 0 2.52 0 3.16-.33a3 3 0 0 0 1.31-1.3c.33-.65.33-1.49.33-3.17V7.8c0-1.68 0-2.52-.33-3.16a3 3 0 0 0-1.3-1.31C18.71 3 17.87 3 16.2 3H7.8c-1.68 0-2.52 0-3.16.33a3 3 0 0 0-1.31 1.3C3 5.29 3 6.13 3 7.8"/></symbol>
<!-- outline -->
<symbol id="outline" fill="none" viewBox="0 0 24 24"><path stroke="currentcolor" stroke-linecap="round" stroke-linejoin="round" stroke-width="2" d="M8.5 12H13a2.5 2.5 0 0 0 0-5H8.5zm0 0H14a2.5 2.5 0 0 1 0 5H8.5zm-.7 9h8.4c1.68 0 2.52 0 3.16-.33a3 3 0 0 0 1.31-1.3c.33-.65.33-1.49.33-3.17V7.8c0-1.68 0-2.52-.33-3.16a3 3 0 0 0-1.3-1.31C18.71 3 17.87 3 16.2 3H7.8c-1.68 0-2.52 0-3.16.33a3 3 0 0 0-1.31 1.3C3 5.29 3 6.13 3 7.8v8.4c0 1.68 0 2.52.33 3.16a3 3 0 0 0 1.3 1.31c.65.33 1.49.33 3.17.33"/></symbol>
<!-- paragraph-spacing -->
<symbol id="paragraph-spacing" fill="none" viewBox="0 0 24 24"><path stroke="currentcolor" stroke-linecap="round" stroke-linejoin="round" stroke-width="2" d="M21 10h-8m8-4h-8m8 8h-8m8 4h-8m-7 2V4m0 16-3-3m3 3 3-3M6 4 3 7m3-3 3 3"/></symbol>
<!-- paragraph-wrap -->
<symbol id="paragraph-wrap" fill="none" viewBox="0 0 24 24"><path stroke="currentcolor" stroke-linecap="round" stroke-linejoin="round" stroke-width="2" d="M3 6h18M3 12h15a3 3 0 0 1 0 6h-4m0 0 2-2m-2 2 2 2M3 18h7"/></symbol>
<!-- paste -->
<symbol id="paste" fill="none" viewBox="0 0 24 24"><path stroke="currentcolor" stroke-linecap="round" stroke-linejoin="round" stroke-width="2" d="M15 2v1.4c0 .56 0 .84-.1 1.05a1 1 0 0 1-.45.44c-.21.11-.49.11-1.05.11h-2.8c-.56 0-.84 0-1.05-.1a1 1 0 0 1-.44-.45C9 4.24 9 3.96 9 3.4V2M7.2 22h9.6c1.12 0 1.68 0 2.1-.22a2 2 0 0 0 .88-.87c.22-.43.22-.99.22-2.11V5.2c0-1.12 0-1.68-.22-2.1a2 2 0 0 0-.87-.88C18.48 2 17.92 2 16.8 2H7.2c-1.12 0-1.68 0-2.1.22a2 2 0 0 0-.88.87C4 3.52 4 4.08 4 5.2v13.6c0 1.12 0 1.68.22 2.1q.3.58.87.88c.43.22.99.22 2.11.22"/></symbol>
<!-- paste -->
<symbol id="paste-2x" fill="none" viewBox="0 0 24 24"><path stroke="currentcolor" stroke-linecap="round" stroke-linejoin="round" stroke-width="1" d="M15 2v1.4c0 .56 0 .84-.1 1.05a1 1 0 0 1-.45.44c-.21.11-.49.11-1.05.11h-2.8c-.56 0-.84 0-1.05-.1a1 1 0 0 1-.44-.45C9 4.24 9 3.96 9 3.4V2M7.2 22h9.6c1.12 0 1.68 0 2.1-.22a2 2 0 0 0 .88-.87c.22-.43.22-.99.22-2.11V5.2c0-1.12 0-1.68-.22-2.1a2 2 0 0 0-.87-.88C18.48 2 17.92 2 16.8 2H7.2c-1.12 0-1.68 0-2.1.22a2 2 0 0 0-.88.87C4 3.52 4 4.08 4 5.2v13.6c0 1.12 0 1.68.22 2.1q.3.58.87.88c.43.22.99.22 2.11.22"/></symbol>
<!-- pen -->
<symbol id="pen" fill="none" viewBox="0 0 24 24"><path stroke="currentcolor" stroke-linecap="round" stroke-linejoin="round" stroke-width="2" d="M2.88 18.12c.04-.42.06-.62.13-.82a2 2 0 0 1 .23-.48c.11-.17.26-.32.55-.61L17 3a2.83 2.83 0 1 1 4 4L7.8 20.2c-.3.3-.45.45-.62.56a2 2 0 0 1-.48.23c-.2.07-.4.09-.82.13l-3.38.38z"/></symbol>
<!-- pencil -->
<symbol id="pencil" fill="none" viewBox="0 0 24 24"><path stroke="currentcolor" stroke-linecap="round" stroke-linejoin="round" stroke-width="2" d="m2.5 21.5 5.55-2.13c.35-.14.53-.2.7-.3a3 3 0 0 0 .42-.27c.15-.12.28-.25.55-.52L21 7a2.83 2.83 0 1 0-4-4L5.72 14.28c-.27.27-.4.4-.52.55a3 3 0 0 0-.27.42c-.1.17-.16.35-.3.7zm0 0 2.06-5.35c.15-.38.22-.58.35-.66a.5.5 0 0 1 .37-.08c.16.03.3.17.59.46l2.26 2.26c.29.29.43.43.46.59a.5.5 0 0 1-.08.37c-.08.13-.28.2-.66.35z"/></symbol>
<!-- people -->
<symbol id="people" fill="none" viewBox="0 0 24 24"><path stroke="currentcolor" stroke-linecap="round" stroke-linejoin="round" stroke-width="2" d="M19 21v-6m-3 3h6m-10-3H8c-1.86 0-2.8 0-3.53.3a4 4 0 0 0-2.17 2.17C2 18.2 2 19.14 2 21M15.5 3.3a4 4 0 0 1 0 7.4m-2-3.7a4 4 0 1 1-8 0 4 4 0 0 1 8 0"/></symbol>
<!-- pie-chart -->
<symbol id="pie-chart" fill="none" viewBox="0 0 24 24"><path stroke="currentcolor" stroke-linecap="round" stroke-linejoin="round" stroke-width="2" d="M17.2 14c.28 0 .42 0 .53.06q.15.09.22.24c.05.12.04.25.01.5A8 8 0 1 1 9.2 6.04c.25-.03.38-.04.5.01q.16.07.24.22c.06.11.06.25.06.53v6.4c0 .28 0 .42.05.53q.08.15.22.22c.11.05.25.05.53.05zM14 2.8c0-.28 0-.42.06-.53q.09-.15.24-.22c.12-.05.25-.04.5-.01a8 8 0 0 1 7.16 7.16c.03.25.04.38-.01.5q-.07.16-.22.24c-.11.06-.25.06-.53.06h-6.4c-.28 0-.42 0-.53-.05a.5.5 0 0 1-.22-.22C14 9.62 14 9.48 14 9.2z"/></symbol>
<!-- play-slide-show -->
<symbol id="play-slide-show" fill="none" viewBox="0 0 24 24"><path stroke="currentcolor" stroke-linecap="round" stroke-linejoin="round" stroke-width="2" d="M9.5 8.97c0-.48 0-.72.1-.85a.5.5 0 0 1 .36-.2c.17-.01.37.11.77.37l4.72 3.04c.35.22.53.33.59.48a.5.5 0 0 1 0 .38c-.06.15-.24.26-.59.48l-4.72 3.04c-.4.26-.6.38-.77.37a.5.5 0 0 1-.36-.2c-.1-.13-.1-.37-.1-.85z"/><path stroke="currentcolor" stroke-linecap="round" stroke-linejoin="round" stroke-width="2" d="M3 7.8c0-1.68 0-2.52.33-3.16a3 3 0 0 1 1.3-1.31C5.29 3 6.13 3 7.8 3h8.4c1.68 0 2.52 0 3.16.33a3 3 0 0 1 1.31 1.3c.33.65.33 1.49.33 3.17v8.4c0 1.68 0 2.52-.33 3.16a3 3 0 0 1-1.3 1.31c-.65.33-1.49.33-3.17.33H7.8c-1.68 0-2.52 0-3.16-.33a3 3 0 0 1-1.31-1.3C3 18.71 3 17.87 3 16.2z"/></symbol>
<!-- preview-proper -->
<symbol id="preview-proper" fill="none" viewBox="0 0 24 24"><path stroke="currentcolor" stroke-linecap="round" stroke-linejoin="round" stroke-width="2" d="M16.2 3H7.8c-1.68 0-2.52 0-3.16.33a3 3 0 0 0-1.31 1.3C3 5.29 3 6.13 3 7.8v8.4c0 1.68 0 2.52.33 3.16a3 3 0 0 0 1.3 1.31c.65.33 1.49.33 3.17.33h8.4c1.68 0 2.52 0 3.16-.33a3 3 0 0 0 1.31-1.3c.33-.65.33-1.49.33-3.17V7.8M16.2 3c1.68 0 2.52 0 3.16.33a3 3 0 0 1 1.31 1.3c.33.65.33 1.49.33 3.17M16.2 3h-1c-1.12 0-1.68 0-2.1.22a2 2 0 0 0-.88.87C12 4.52 12 5.08 12 6.2v2.6c0 1.12 0 1.68.22 2.1q.3.58.87.88c.43.22.99.22 2.11.22h2.6c1.12 0 1.68 0 2.1-.22a2 2 0 0 0 .88-.87c.22-.43.22-.99.22-2.11v-1m-8.5 3.7L7 17m0 0h5m-5 0v-5"/></symbol>
<!-- print -->
<symbol id="print" fill="none" viewBox="0 0 24 24"><path stroke="currentcolor" stroke-linecap="round" stroke-linejoin="round" stroke-width="2" d="M18 7V5.2c0-1.12 0-1.68-.22-2.1a2 2 0 0 0-.87-.88C16.48 2 15.92 2 14.8 2H9.2c-1.12 0-1.68 0-2.1.22a2 2 0 0 0-.88.87C6 3.52 6 4.08 6 5.2V7m0 11c-.93 0-1.4 0-1.78-.1a3 3 0 0 1-2.12-2.12C2 15.4 2 14.93 2 14v-2.2c0-1.68 0-2.52.33-3.16a3 3 0 0 1 1.3-1.31C4.29 7 5.13 7 6.8 7h10.4c1.68 0 2.52 0 3.16.33a3 3 0 0 1 1.31 1.3c.33.65.33 1.49.33 3.17V14c0 .93 0 1.4-.1 1.78a3 3 0 0 1-2.12 2.12c-.39.1-.85.1-1.78.1m-3-7.5h3M9.2 22h5.6c1.12 0 1.68 0 2.1-.22a2 2 0 0 0 .88-.87c.22-.43.22-.99.22-2.11v-1.6c0-1.12 0-1.68-.22-2.1a2 2 0 0 0-.87-.88c-.43-.22-.99-.22-2.11-.22H9.2c-1.12 0-1.68 0-2.1.22a2 2 0 0 0-.88.87C6 15.52 6 16.08 6 17.2v1.6c0 1.12 0 1.68.22 2.1q.3.58.87.88c.43.22.99.22 2.11.22"/></symbol>
<!-- quotation -->
<symbol id="quotation" fill="none" viewBox="0 0 24 24"><path stroke="currentcolor" stroke-linecap="round" stroke-linejoin="round" stroke-width="2" d="M21 11.5a8.5 8.5 0 0 1-11.56 7.93q-.24-.1-.32-.11l-.2-.03q-.08 0-.3.03l-5.11.52c-.5.05-.74.08-.88 0a.5.5 0 0 1-.23-.36c-.03-.16.09-.38.32-.81l1.63-3.03c.14-.25.2-.37.24-.5a1 1 0 0 0 .03-.32c-.01-.12-.07-.28-.18-.6A8.5 8.5 0 0 1 12.5 3c4.7 0 8.5 3.8 8.5 8.5"/></symbol>
<!-- rectangle -->
<symbol id="rectangle" fill="none" viewBox="0 0 24 24"><path stroke="currentcolor" stroke-linecap="round" stroke-linejoin="round" stroke-width="2" d="M3 7.8c0-1.68 0-2.52.33-3.16a3 3 0 0 1 1.3-1.31C5.29 3 6.13 3 7.8 3h8.4c1.68 0 2.52 0 3.16.33a3 3 0 0 1 1.31 1.3c.33.65.33 1.49.33 3.17v8.4c0 1.68 0 2.52-.33 3.16a3 3 0 0 1-1.3 1.31c-.65.33-1.49.33-3.17.33H7.8c-1.68 0-2.52 0-3.16-.33a3 3 0 0 1-1.31-1.3C3 18.71 3 17.87 3 16.2z"/></symbol>
<!-- redo -->
<symbol id="redo" fill="none" viewBox="0 0 24 24" stroke="currentColor" stroke-width="2" stroke-linecap="round" stroke-linejoin="round"><path d="m15 14 5-5-5-5"/><path d="M20 9H9.5A5.5 5.5 0 0 0 4 14.5v0A5.5 5.5 0 0 0 9.5 20H13"/></symbol>
<!-- remove -->
<symbol id="remove" fill="none" viewBox="0 0 24 24"><path stroke="currentcolor" stroke-linecap="round" stroke-linejoin="round" stroke-width="2" d="m18 13-7-7m10 15H8m2.94-.94 8.67-8.67c1.18-1.18 1.78-1.78 2-2.46a3 3 0 0 0 0-1.86c-.22-.68-.82-1.28-2-2.46l-.22-.22c-1.18-1.18-1.78-1.78-2.46-2a3 3 0 0 0-1.86 0c-.68.22-1.28.82-2.46 2l-8.22 8.22c-1.18 1.18-1.78 1.78-2 2.46a3 3 0 0 0 0 1.86c.22.68.82 1.28 2 2.46l.67.67c.35.35.52.52.72.65a2 2 0 0 0 .58.23c.23.06.48.06.97.06h1.34c.5 0 .74 0 .97-.06a2 2 0 0 0 .58-.23c.2-.13.37-.3.72-.65"/></symbol>
<!-- rename -->
<symbol id="rename" fill="none" viewBox="0 0 24 24"><path stroke="currentcolor" stroke-linecap="round" stroke-linejoin="round" stroke-width="2" d="M13 7H5.2c-1.12 0-1.68 0-2.1.22a2 2 0 0 0-.88.87C2 8.52 2 9.08 2 10.2v3.6c0 1.12 0 1.68.22 2.1q.3.58.87.88c.43.22.99.22 2.11.22H13m4-10h1.8c1.12 0 1.68 0 2.1.22q.58.3.88.87c.22.43.22.99.22 2.11v3.6c0 1.12 0 1.68-.22 2.1a2 2 0 0 1-.87.88c-.43.22-.99.22-2.11.22H17m0 4V3m2.5 0h-5m5 18h-5"/></symbol>
<!-- right-alignment -->
<symbol id="right-alignment" fill="none" viewBox="0 0 24 24"><path stroke="currentcolor" stroke-linecap="round" stroke-linejoin="round" stroke-width="2" d="M21 10H8m13-4H4m17 8H4m17 4H8"/></symbol>
<!-- right-indent -->
<symbol id="right-indent" fill="none" viewBox="0 0 24 24"><path stroke="currentcolor" stroke-linecap="round" stroke-linejoin="round" stroke-width="2" d="M12 9.25H3M12 4H3m18 10.75H3M21 20H3M19.72 2.96l-3.87 2.9c-.29.22-.43.33-.48.46a.5.5 0 0 0 0 .36c.05.13.2.24.48.46l3.87 2.9c.41.3.62.46.79.46a.5.5 0 0 0 .38-.2c.11-.13.11-.39.11-.9V3.6c0-.52 0-.77-.1-.9a.5.5 0 0 0-.39-.2c-.17 0-.38.15-.79.46"/></symbol>
<!-- row-grid-bottom -->
<symbol id="row-grid-bottom" fill="none" viewBox="0 0 24 24"><path stroke="currentcolor" stroke-linecap="round" stroke-linejoin="round" stroke-width="2" d="M3 3zM3 12zM3 16.5zM3 7.5zM7.5 3zm-.01 9zm8.99-9h.01m-.01 9h.01M12 3zM12 12zM12 16.5zm-.01-9zM21 3h.01M21 12h.01M21 16.5h.01m-.01-9h.01M21 21H3"/></symbol>
<!-- row-grid-center -->
<symbol id="row-grid-center" fill="none" viewBox="0 0 24 24"><path stroke="currentcolor" stroke-linecap="round" stroke-linejoin="round" stroke-width="2" d="M3 3zM3 21zM3 16.5zM3 7.5zM7.5 3zM7.5 21zM16.5 3h.01m-.01 18h.01M12 3zM12 21zM12 16.5zm-.01-9zM21 3h.01M21 21h.01M21 16.5h.01m-.01-9h.01M21 12H3"/></symbol>
<!-- row-grid-top -->
<symbol id="row-grid-top" fill="none" viewBox="0 0 24 24"><path stroke="currentcolor" stroke-linecap="round" stroke-linejoin="round" stroke-width="2" d="M3 21zM3 12zM3 16.5zM3 7.5zM7.5 21zm-.01-9zm8.99 9h.01m-.01-9h.01M12 21zM12 12zM12 16.5zm-.01-9zM21 21h.01M21 12h.01M21 16.5h.01m-.01-9h.01M21 3H3"/></symbol>
<!-- save -->
<symbol id="save" fill="none" viewBox="0 0 24 24"><path stroke="currentcolor" stroke-linecap="round" stroke-linejoin="round" stroke-width="2" d="M7 3v3.4c0 .56 0 .84.1 1.05a1 1 0 0 0 .45.44C7.76 8 8.04 8 8.6 8h6.8c.56 0 .84 0 1.05-.1a1 1 0 0 0 .44-.45c.11-.21.11-.49.11-1.05V4m0 17v-6.4c0-.56 0-.84-.1-1.05a1 1 0 0 0-.45-.44c-.21-.11-.49-.11-1.05-.11H8.6c-.56 0-.84 0-1.05.1a1 1 0 0 0-.44.45C7 13.76 7 14.04 7 14.6V21M21 9.33v6.87c0 1.68 0 2.52-.33 3.16a3 3 0 0 1-1.3 1.31c-.65.33-1.49.33-3.17.33H7.8c-1.68 0-2.52 0-3.16-.33a3 3 0 0 1-1.31-1.3C3 18.71 3 17.87 3 16.2V7.8c0-1.68 0-2.52.33-3.16a3 3 0 0 1 1.3-1.31C5.29 3 6.13 3 7.8 3h6.87c.5 0 .74 0 .97.06q.3.07.58.23c.2.13.37.3.72.65l3.12 3.12c.35.35.52.52.65.72a2 2 0 0 1 .23.58c.06.23.06.48.06.97"/></symbol>
<!-- special-character -->
<symbol id="special-character" fill="none" viewBox="0 0 24 24"><path stroke="currentcolor" stroke-linecap="round" stroke-linejoin="round" stroke-width="2" d="M12 4v16m6-14L6 18m14-6H4m14 6L6 6"/></symbol>
<!-- speech-recognition -->
<symbol id="speech-recognition" fill="none" viewBox="0 0 24 24"><path stroke="currentcolor" stroke-linecap="round" stroke-linejoin="round" stroke-width="2" d="M19 10v2a7 7 0 0 1-7 7m0 0a7 7 0 0 1-7-7v-2m7 9v3m-4 0h8m-4-7a3 3 0 0 1-3-3V5a3 3 0 1 1 6 0v7a3 3 0 0 1-3 3"/></symbol>
<!-- strike-through -->
<symbol id="strike-through" fill="none" viewBox="0 0 24 24"><path stroke="currentcolor" stroke-linecap="round" stroke-linejoin="round" stroke-width="2" d="M6 16a4 4 0 0 0 4 4h4a4 4 0 0 0 0-8m-3.5 8a4 4 0 0 0 0-8M18 8a4 4 0 0 0-4-4h-4a4 4 0 0 0-4 4m7.5-4a4 4 0 0 0-4 4M3 12h18"/></symbol>
<!-- subscript -->
<symbol id="subscript" fill="none" viewBox="0 0 24 24"><path stroke="currentcolor" stroke-linecap="round" stroke-linejoin="round" stroke-width="2" d="m3 5 10 10m0-10L3 15m18 4h-4c0-1.5.44-2 1.5-2.5S21 15.33 21 14c0-.47-.17-.93-.48-1.29a2.1 2.1 0 0 0-2.62-.44q-.64.38-.9 1.07"/></symbol>
<!-- superscript -->
<symbol id="superscript" fill="none" viewBox="0 0 24 24"><path stroke="currentcolor" stroke-linecap="round" stroke-linejoin="round" stroke-width="2" d="m3 9 10 10m0-10L3 19m18-7h-4c0-1.5.44-2 1.5-2.5S21 8.33 21 7c0-.47-.17-.93-.48-1.29a2.1 2.1 0 0 0-2.62-.44q-.64.38-.9 1.07"/></symbol>
<!-- triangle -->
<symbol id="triangle" fill="none" viewBox="0 0 24 24"><path stroke="currentcolor" stroke-linecap="round" stroke-linejoin="round" stroke-width="2" d="m2.39 18.1 8.23-14.2c.45-.8.68-1.19.97-1.32a1 1 0 0 1 .82 0c.3.13.52.53.97 1.31l8.23 14.2c.46.8.68 1.19.65 1.51a1 1 0 0 1-.4.7c-.27.2-.72.2-1.64.2H3.77c-.9 0-1.36 0-1.62-.2a1 1 0 0 1-.41-.7c-.03-.32.2-.71.65-1.5"/></symbol>
<!-- type-color -->
<symbol id="type-color" fill="none" viewBox="0 0 24 24"><path stroke="currentcolor" stroke-linecap="round" stroke-linejoin="round" stroke-width="2" d="M16 11H2m8-7L8 2m6 20H2m20-6a2 2 0 1 1-4 0c0-1.1 2-3 2-3s2 1.9 2 3M9 3l6.87 6.87c.4.4.6.6.67.82a1 1 0 0 1 0 .62c-.08.23-.28.43-.67.82l-4.6 4.6c-.8.8-1.2 1.2-1.65 1.34a2 2 0 0 1-1.24 0c-.45-.14-.85-.54-1.64-1.33l-3.48-3.48c-.79-.79-1.19-1.19-1.33-1.64a2 2 0 0 1 0-1.24c.14-.45.54-.85 1.33-1.64z"/></symbol>
<!-- underline -->
<symbol id="underline" fill="none" viewBox="0 0 24 24"><path stroke="currentcolor" stroke-linecap="round" stroke-linejoin="round" stroke-width="2" d="M19 4v6a7 7 0 1 1-14 0V4m3.5 0v6a7 7 0 0 0 5.14 6.75M4 21h16M3 4h7.5M17 4h4"/></symbol>
<!-- undo -->
<symbol id="undo" fill="none" viewBox="0 0 24 24" stroke="currentColor" stroke-width="2" stroke-linecap="round" stroke-linejoin="round"><path d="M9 14 4 9l5-5"/><path d="M4 9h10.5a5.5 5.5 0 0 1 5.5 5.5v0a5.5 5.5 0 0 1-5.5 5.5H11"/></symbol>
<!-- x -->
<symbol id="x" fill="none" viewBox="0 0 24 24" stroke="currentColor" stroke-width="2" stroke-linecap="round" stroke-linejoin="round"><path d="M18 6 6 18"/><path d="m6 6 12 12"/></symbol>
</defs>
</svg>
